G75*
%MOIN*%
%OFA0B0*%
%FSLAX25Y25*%
%IPPOS*%
%LPD*%
%AMOC8*
5,1,8,0,0,1.08239X$1,22.5*
%
%ADD10C,0.08674*%
%ADD11C,0.06800*%
%ADD12OC8,0.05950*%
%ADD13C,0.05950*%
%ADD14R,0.05524X0.03950*%
%ADD15C,0.08200*%
%ADD16R,0.05950X0.05950*%
%ADD17R,0.03950X0.05524*%
%ADD18R,0.05800X0.03300*%
%ADD19C,0.04762*%
D10*
X0016000Y0016000D03*
X0206000Y0016000D03*
X0236000Y0021000D03*
X0236000Y0046000D03*
X0236000Y0071000D03*
X0236000Y0096000D03*
X0236000Y0121000D03*
X0236000Y0146000D03*
X0236000Y0171000D03*
X0236000Y0196000D03*
X0236000Y0221000D03*
X0236000Y0246000D03*
X0236000Y0271000D03*
X0236000Y0296000D03*
X0206000Y0296000D03*
X0271000Y0296000D03*
X0271000Y0231000D03*
X0271000Y0196000D03*
X0271000Y0131000D03*
X0271000Y0096000D03*
X0271000Y0031000D03*
X0366000Y0031000D03*
X0366000Y0096000D03*
X0366000Y0131000D03*
X0366000Y0196000D03*
X0366000Y0231000D03*
X0366000Y0296000D03*
X0016000Y0296000D03*
D11*
X0071000Y0294000D02*
X0071000Y0288000D01*
X0081000Y0288000D02*
X0081000Y0294000D01*
X0081000Y0244000D02*
X0081000Y0238000D01*
X0071000Y0238000D02*
X0071000Y0244000D01*
X0041000Y0199000D02*
X0041000Y0193000D01*
X0031000Y0193000D02*
X0031000Y0199000D01*
X0031000Y0149000D02*
X0031000Y0143000D01*
X0041000Y0143000D02*
X0041000Y0149000D01*
X0106000Y0149000D02*
X0106000Y0143000D01*
X0116000Y0143000D02*
X0116000Y0149000D01*
X0116000Y0193000D02*
X0116000Y0199000D01*
X0106000Y0199000D02*
X0106000Y0193000D01*
X0151000Y0238000D02*
X0151000Y0244000D01*
X0161000Y0244000D02*
X0161000Y0238000D01*
X0183000Y0206000D02*
X0189000Y0206000D01*
X0189000Y0196000D02*
X0183000Y0196000D01*
X0183000Y0186000D02*
X0189000Y0186000D01*
X0189000Y0176000D02*
X0183000Y0176000D01*
X0183000Y0166000D02*
X0189000Y0166000D01*
X0189000Y0156000D02*
X0183000Y0156000D01*
X0183000Y0146000D02*
X0189000Y0146000D01*
X0189000Y0136000D02*
X0183000Y0136000D01*
X0183000Y0126000D02*
X0189000Y0126000D01*
X0189000Y0116000D02*
X0183000Y0116000D01*
X0183000Y0081000D02*
X0189000Y0081000D01*
X0189000Y0071000D02*
X0183000Y0071000D01*
X0183000Y0061000D02*
X0189000Y0061000D01*
X0189000Y0051000D02*
X0183000Y0051000D01*
X0161000Y0288000D02*
X0161000Y0294000D01*
X0151000Y0294000D02*
X0151000Y0288000D01*
D12*
X0101000Y0026000D03*
D13*
X0111000Y0026000D03*
X0121000Y0026000D03*
X0131000Y0026000D03*
X0365000Y0051189D03*
X0365000Y0059063D03*
X0365000Y0066937D03*
X0365000Y0151189D03*
X0365000Y0159063D03*
X0365000Y0166937D03*
X0365000Y0251189D03*
X0365000Y0259063D03*
X0365000Y0266937D03*
D14*
X0345000Y0275457D03*
X0345000Y0282543D03*
X0325000Y0282543D03*
X0325000Y0275457D03*
X0325000Y0268543D03*
X0325000Y0261457D03*
X0325000Y0254543D03*
X0325000Y0247457D03*
X0315000Y0261457D03*
X0315000Y0268543D03*
X0315000Y0275457D03*
X0305000Y0268543D03*
X0305000Y0261457D03*
X0315000Y0282543D03*
X0315000Y0182543D03*
X0315000Y0175457D03*
X0315000Y0168543D03*
X0305000Y0168543D03*
X0305000Y0161457D03*
X0315000Y0161457D03*
X0325000Y0161457D03*
X0325000Y0154543D03*
X0325000Y0147457D03*
X0325000Y0168543D03*
X0325000Y0175457D03*
X0325000Y0182543D03*
X0345000Y0182543D03*
X0345000Y0175457D03*
X0345000Y0082543D03*
X0345000Y0075457D03*
X0325000Y0075457D03*
X0325000Y0068543D03*
X0325000Y0061457D03*
X0325000Y0054543D03*
X0325000Y0047457D03*
X0315000Y0061457D03*
X0315000Y0068543D03*
X0315000Y0075457D03*
X0305000Y0068543D03*
X0305000Y0061457D03*
X0315000Y0082543D03*
X0325000Y0082543D03*
D15*
X0325000Y0093000D03*
X0335000Y0093000D03*
X0345000Y0093000D03*
X0315000Y0093000D03*
X0305000Y0093000D03*
X0295000Y0093000D03*
X0295000Y0193000D03*
X0305000Y0193000D03*
X0315000Y0193000D03*
X0325000Y0193000D03*
X0335000Y0193000D03*
X0345000Y0193000D03*
X0345000Y0293000D03*
X0335000Y0293000D03*
X0325000Y0293000D03*
X0315000Y0293000D03*
X0305000Y0293000D03*
X0295000Y0293000D03*
D16*
X0365000Y0274811D03*
X0365000Y0174811D03*
X0365000Y0074811D03*
D17*
X0306543Y0031000D03*
X0299457Y0031000D03*
X0299457Y0131000D03*
X0306543Y0131000D03*
X0306543Y0231000D03*
X0299457Y0231000D03*
D18*
X0317000Y0231000D03*
X0317000Y0227500D03*
X0317000Y0234500D03*
X0317000Y0134500D03*
X0317000Y0131000D03*
X0317000Y0127500D03*
X0317000Y0034500D03*
X0317000Y0031000D03*
X0317000Y0027500D03*
D19*
X0330000Y0042500D03*
X0335110Y0059189D03*
X0330000Y0065500D03*
X0334000Y0075457D03*
X0310000Y0065000D03*
X0305000Y0075000D03*
X0330000Y0142500D03*
X0335110Y0159189D03*
X0330000Y0165500D03*
X0334000Y0175457D03*
X0310000Y0165000D03*
X0305000Y0175000D03*
X0330000Y0242500D03*
X0335110Y0259189D03*
X0330000Y0265500D03*
X0334000Y0275457D03*
X0310000Y0265000D03*
X0305000Y0275000D03*
M02*
