G75*
%MOIN*%
%OFA0B0*%
%FSLAX25Y25*%
%IPPOS*%
%LPD*%
%AMOC8*
5,1,8,0,0,1.08239X$1,22.5*
%
%ADD10R,0.01969X0.10236*%
%ADD11R,0.02756X0.10236*%
%ADD12R,0.02756X0.14173*%
D10*
X0309835Y0050240D03*
X0314835Y0050240D03*
X0319835Y0050240D03*
X0324835Y0050240D03*
X0329835Y0050240D03*
X0329835Y0074256D03*
X0324835Y0074256D03*
X0319835Y0074256D03*
X0314835Y0074256D03*
X0309835Y0074256D03*
X0309835Y0150240D03*
X0314835Y0150240D03*
X0319835Y0150240D03*
X0324835Y0150240D03*
X0329835Y0150240D03*
X0329835Y0174256D03*
X0324835Y0174256D03*
X0319835Y0174256D03*
X0314835Y0174256D03*
X0309835Y0174256D03*
X0309835Y0250240D03*
X0314835Y0250240D03*
X0319835Y0250240D03*
X0324835Y0250240D03*
X0329835Y0250240D03*
X0329835Y0274256D03*
X0324835Y0274256D03*
X0319835Y0274256D03*
X0314835Y0274256D03*
X0309835Y0274256D03*
D11*
X0297787Y0274256D03*
X0341882Y0274256D03*
X0341882Y0250240D03*
X0341882Y0174256D03*
X0341882Y0150240D03*
X0297787Y0174256D03*
X0297787Y0074256D03*
X0341882Y0074256D03*
X0341882Y0050240D03*
D12*
X0297787Y0052209D03*
X0297787Y0152209D03*
X0297787Y0252209D03*
M02*
