%
M48
M72
T01C0.02362
T02C0.03150
T03C0.04000
T04C0.07874
%
T01
X305000Y75000
X310000Y65000
X330000Y65500
X335110Y59189
X334000Y75457
X330000Y42500
X330000Y142500
X335110Y159189
X330000Y165500
X334000Y175457
X310000Y165000
X305000Y175000
X330000Y242500
X335110Y259189
X330000Y265500
X334000Y275457
X310000Y265000
X305000Y275000
T02
X365000Y274811
X365000Y266937
X365000Y259063
X365000Y251189
X365000Y174811
X365000Y166937
X365000Y159063
X365000Y151189
X365000Y74811
X365000Y66937
X365000Y59063
X365000Y51189
X131000Y26000
X121000Y26000
X111000Y26000
X101000Y26000
T03
X186000Y51000
X186000Y61000
X186000Y71000
X186000Y81000
X186000Y116000
X186000Y126000
X186000Y136000
X186000Y146000
X186000Y156000
X186000Y166000
X186000Y176000
X186000Y186000
X186000Y196000
X186000Y206000
X161000Y241000
X151000Y241000
X151000Y291000
X161000Y291000
X81000Y291000
X71000Y291000
X71000Y241000
X81000Y241000
X106000Y196000
X116000Y196000
X116000Y146000
X106000Y146000
X41000Y146000
X31000Y146000
X31000Y196000
X41000Y196000
X295000Y193000
X305000Y193000
X315000Y193000
X325000Y193000
X335000Y193000
X345000Y193000
X345000Y93000
X335000Y93000
X325000Y93000
X315000Y93000
X305000Y93000
X295000Y93000
X295000Y293000
X305000Y293000
X315000Y293000
X325000Y293000
X335000Y293000
X345000Y293000
T04
X16000Y16000
X206000Y16000
X236000Y21000
X236000Y46000
X236000Y71000
X236000Y96000
X236000Y121000
X236000Y146000
X236000Y171000
X236000Y196000
X236000Y221000
X236000Y246000
X236000Y271000
X236000Y296000
X206000Y296000
X271000Y296000
X271000Y231000
X271000Y196000
X271000Y131000
X271000Y96000
X271000Y31000
X366000Y31000
X366000Y96000
X366000Y131000
X366000Y196000
X366000Y231000
X366000Y296000
X16000Y296000
M30
