%
M48
M72
T01C0.01378
T02C0.03000
T03C0.03150
T04C0.03200
T05C0.04000
T06C0.04400
T07C0.05000
T08C0.10827
%
T01
X114500Y146093
X269500Y158093
X276000Y266093
T02
X216000Y274093
X216000Y285093
T03
X311000Y206093
X311000Y196093
X311000Y186093
X311000Y176093
T04
X241000Y261093
X241000Y271093
X191000Y271093
X191000Y261093
X146000Y261093
X146000Y271093
X106000Y271093
X106000Y261093
X63500Y276093
X56000Y281093
X56000Y271093
X76000Y151093
X83500Y146093
X76000Y141093
T05
X51000Y46093
X51000Y56093
X51000Y66093
X61000Y66093
X71000Y66093
X81000Y66093
X91000Y66093
X101000Y66093
X111000Y66093
X121000Y66093
X131000Y66093
X141000Y66093
X151000Y66093
X161000Y66093
X171000Y66093
X181000Y66093
X191000Y66093
X201000Y66093
X201000Y56093
X191000Y56093
X181000Y56093
X171000Y56093
X161000Y56093
X151000Y56093
X141000Y56093
X131000Y56093
X121000Y56093
X111000Y56093
X101000Y56093
X91000Y56093
X81000Y56093
X71000Y56093
X61000Y56093
X61000Y46093
X71000Y46093
X81000Y46093
X91000Y46093
X101000Y46093
X111000Y46093
X121000Y46093
X131000Y46093
X141000Y46093
X151000Y46093
X161000Y46093
X171000Y46093
X181000Y46093
X191000Y46093
X201000Y46093
X201000Y76093
X191000Y76093
X191000Y86093
X201000Y86093
X201000Y96093
X191000Y96093
X191000Y106093
X201000Y106093
X201000Y116093
X191000Y116093
X181000Y116093
X171000Y116093
X161000Y116093
X151000Y116093
X141000Y116093
X131000Y116093
X121000Y116093
X111000Y116093
X101000Y116093
X91000Y116093
X81000Y116093
X71000Y116093
X61000Y116093
X51000Y116093
X51000Y106093
X61000Y106093
X71000Y106093
X81000Y106093
X91000Y106093
X101000Y106093
X111000Y106093
X121000Y106093
X131000Y106093
X141000Y106093
X151000Y106093
X161000Y106093
X171000Y106093
X181000Y106093
X181000Y96093
X171000Y96093
X161000Y96093
X151000Y96093
X141000Y96093
X131000Y96093
X121000Y96093
X111000Y96093
X101000Y96093
X91000Y96093
X81000Y96093
X71000Y96093
X61000Y96093
X51000Y96093
X51000Y86093
X61000Y86093
X71000Y86093
X81000Y86093
X91000Y86093
X101000Y86093
X111000Y86093
X121000Y86093
X131000Y86093
X141000Y86093
X151000Y86093
X161000Y86093
X171000Y86093
X181000Y86093
X181000Y76093
X171000Y76093
X161000Y76093
X151000Y76093
X141000Y76093
X131000Y76093
X121000Y76093
X111000Y76093
X101000Y76093
X91000Y76093
X81000Y76093
X71000Y76093
X61000Y76093
X51000Y76093
X16000Y136093
X16000Y146093
X16000Y176093
X16000Y186093
X16000Y196093
X16000Y206093
X16000Y216093
X16000Y226093
X78900Y222793
X88900Y222793
X98900Y222793
X108900Y222793
X118900Y222793
X128900Y222793
X138900Y222793
X148900Y222793
X158900Y222793
X168900Y222793
X178900Y222793
X188900Y222793
X198900Y222793
X208900Y222793
X218900Y222793
X228900Y222793
X238900Y222793
X248900Y222793
X258900Y222793
X268900Y222793
X268900Y212793
X258900Y212793
X248900Y212793
X238900Y212793
X228900Y212793
X218900Y212793
X208900Y212793
X198900Y212793
X188900Y212793
X178900Y212793
X168900Y212793
X158900Y212793
X148900Y212793
X138900Y212793
X128900Y212793
X118900Y212793
X108900Y212793
X98900Y212793
X88900Y212793
X78953Y212785
X78500Y181593
X88500Y181593
X98500Y181593
X108500Y181593
X118500Y181593
X128500Y181593
X138500Y181593
X148500Y181593
X158500Y181593
X168500Y181593
X178500Y181593
X188500Y181593
X198500Y181593
X208500Y181593
X218500Y181593
X228500Y181593
X238500Y181593
X248500Y181593
X258500Y181593
X268500Y181593
X268500Y171593
X258500Y171593
X248500Y171593
X238500Y171593
X228500Y171593
X218500Y171593
X208500Y171593
X198500Y171593
X188500Y171593
X178500Y171593
X168500Y171593
X158500Y171593
X148500Y171593
X138500Y171593
X128500Y171593
X118500Y171593
X108500Y171593
X98500Y171593
X88500Y171593
X78500Y171593
X16000Y281093
X16000Y291093
X86000Y296093
X96000Y296093
X106000Y296093
X136000Y296093
X146000Y296093
X156000Y296093
X181000Y296093
X191000Y296093
X201000Y296093
X231000Y296093
X241000Y296093
X251000Y296093
X296000Y296093
X306000Y296093
X316000Y296093
X326000Y296093
X336000Y296093
X346000Y296093
X356000Y296093
X366000Y296093
X376000Y296093
X386000Y296093
X386000Y271093
X376000Y271093
X366000Y271093
X356000Y271093
X346000Y271093
X336000Y271093
X326000Y271093
X316000Y271093
X306000Y271093
X296000Y271093
X301000Y146093
X301000Y136093
X301000Y126093
X301000Y116093
X301000Y106093
X301000Y96093
X261000Y96093
X261000Y106093
X261000Y116093
X261000Y126093
X261000Y136093
X261000Y146093
X256000Y76093
X256000Y66093
X256000Y56093
X256000Y46093
X256000Y36093
X256000Y26093
T06
X41000Y126093
X41000Y166093
X36000Y261093
X36000Y301093
T07
X16000Y266093
X16000Y256093
X16000Y246093
T08
X59780Y217785
X288126Y217785
X288126Y24872
X59780Y24872
M30
