G75*
%MOIN*%
%OFA0B0*%
%FSLAX25Y25*%
%IPPOS*%
%LPD*%
%AMOC8*
5,1,8,0,0,1.08239X$1,22.5*
%
%ADD10C,0.00000*%
%ADD11OC8,0.07000*%
%ADD12C,0.07400*%
%ADD13C,0.06000*%
%ADD14C,0.07600*%
%ADD15OC8,0.06600*%
%ADD16R,0.06000X0.06000*%
%ADD17C,0.06000*%
%ADD18R,0.06299X0.05118*%
%ADD19R,0.05118X0.06299*%
%ADD20OC8,0.05200*%
%ADD21OC8,0.05150*%
%ADD22C,0.05150*%
%ADD23OC8,0.06000*%
%ADD24C,0.03200*%
%ADD25C,0.00800*%
%ADD26R,0.07500X0.07500*%
%ADD27C,0.01000*%
%ADD28C,0.05100*%
%ADD29C,0.02978*%
%ADD30C,0.01200*%
%ADD31C,0.05118*%
D10*
X0001000Y0001093D02*
X0001000Y0316053D01*
X0394701Y0316053D01*
X0394701Y0001093D01*
X0001000Y0001093D01*
X0054367Y0024872D02*
X0054369Y0025019D01*
X0054375Y0025165D01*
X0054385Y0025311D01*
X0054399Y0025457D01*
X0054417Y0025603D01*
X0054438Y0025748D01*
X0054464Y0025892D01*
X0054494Y0026036D01*
X0054527Y0026178D01*
X0054564Y0026320D01*
X0054605Y0026461D01*
X0054650Y0026600D01*
X0054699Y0026739D01*
X0054751Y0026876D01*
X0054808Y0027011D01*
X0054867Y0027145D01*
X0054931Y0027277D01*
X0054998Y0027407D01*
X0055068Y0027536D01*
X0055142Y0027663D01*
X0055219Y0027787D01*
X0055300Y0027910D01*
X0055384Y0028030D01*
X0055471Y0028148D01*
X0055561Y0028263D01*
X0055654Y0028376D01*
X0055751Y0028487D01*
X0055850Y0028595D01*
X0055952Y0028700D01*
X0056057Y0028802D01*
X0056165Y0028901D01*
X0056276Y0028998D01*
X0056389Y0029091D01*
X0056504Y0029181D01*
X0056622Y0029268D01*
X0056742Y0029352D01*
X0056865Y0029433D01*
X0056989Y0029510D01*
X0057116Y0029584D01*
X0057245Y0029654D01*
X0057375Y0029721D01*
X0057507Y0029785D01*
X0057641Y0029844D01*
X0057776Y0029901D01*
X0057913Y0029953D01*
X0058052Y0030002D01*
X0058191Y0030047D01*
X0058332Y0030088D01*
X0058474Y0030125D01*
X0058616Y0030158D01*
X0058760Y0030188D01*
X0058904Y0030214D01*
X0059049Y0030235D01*
X0059195Y0030253D01*
X0059341Y0030267D01*
X0059487Y0030277D01*
X0059633Y0030283D01*
X0059780Y0030285D01*
X0059927Y0030283D01*
X0060073Y0030277D01*
X0060219Y0030267D01*
X0060365Y0030253D01*
X0060511Y0030235D01*
X0060656Y0030214D01*
X0060800Y0030188D01*
X0060944Y0030158D01*
X0061086Y0030125D01*
X0061228Y0030088D01*
X0061369Y0030047D01*
X0061508Y0030002D01*
X0061647Y0029953D01*
X0061784Y0029901D01*
X0061919Y0029844D01*
X0062053Y0029785D01*
X0062185Y0029721D01*
X0062315Y0029654D01*
X0062444Y0029584D01*
X0062571Y0029510D01*
X0062695Y0029433D01*
X0062818Y0029352D01*
X0062938Y0029268D01*
X0063056Y0029181D01*
X0063171Y0029091D01*
X0063284Y0028998D01*
X0063395Y0028901D01*
X0063503Y0028802D01*
X0063608Y0028700D01*
X0063710Y0028595D01*
X0063809Y0028487D01*
X0063906Y0028376D01*
X0063999Y0028263D01*
X0064089Y0028148D01*
X0064176Y0028030D01*
X0064260Y0027910D01*
X0064341Y0027787D01*
X0064418Y0027663D01*
X0064492Y0027536D01*
X0064562Y0027407D01*
X0064629Y0027277D01*
X0064693Y0027145D01*
X0064752Y0027011D01*
X0064809Y0026876D01*
X0064861Y0026739D01*
X0064910Y0026600D01*
X0064955Y0026461D01*
X0064996Y0026320D01*
X0065033Y0026178D01*
X0065066Y0026036D01*
X0065096Y0025892D01*
X0065122Y0025748D01*
X0065143Y0025603D01*
X0065161Y0025457D01*
X0065175Y0025311D01*
X0065185Y0025165D01*
X0065191Y0025019D01*
X0065193Y0024872D01*
X0065191Y0024725D01*
X0065185Y0024579D01*
X0065175Y0024433D01*
X0065161Y0024287D01*
X0065143Y0024141D01*
X0065122Y0023996D01*
X0065096Y0023852D01*
X0065066Y0023708D01*
X0065033Y0023566D01*
X0064996Y0023424D01*
X0064955Y0023283D01*
X0064910Y0023144D01*
X0064861Y0023005D01*
X0064809Y0022868D01*
X0064752Y0022733D01*
X0064693Y0022599D01*
X0064629Y0022467D01*
X0064562Y0022337D01*
X0064492Y0022208D01*
X0064418Y0022081D01*
X0064341Y0021957D01*
X0064260Y0021834D01*
X0064176Y0021714D01*
X0064089Y0021596D01*
X0063999Y0021481D01*
X0063906Y0021368D01*
X0063809Y0021257D01*
X0063710Y0021149D01*
X0063608Y0021044D01*
X0063503Y0020942D01*
X0063395Y0020843D01*
X0063284Y0020746D01*
X0063171Y0020653D01*
X0063056Y0020563D01*
X0062938Y0020476D01*
X0062818Y0020392D01*
X0062695Y0020311D01*
X0062571Y0020234D01*
X0062444Y0020160D01*
X0062315Y0020090D01*
X0062185Y0020023D01*
X0062053Y0019959D01*
X0061919Y0019900D01*
X0061784Y0019843D01*
X0061647Y0019791D01*
X0061508Y0019742D01*
X0061369Y0019697D01*
X0061228Y0019656D01*
X0061086Y0019619D01*
X0060944Y0019586D01*
X0060800Y0019556D01*
X0060656Y0019530D01*
X0060511Y0019509D01*
X0060365Y0019491D01*
X0060219Y0019477D01*
X0060073Y0019467D01*
X0059927Y0019461D01*
X0059780Y0019459D01*
X0059633Y0019461D01*
X0059487Y0019467D01*
X0059341Y0019477D01*
X0059195Y0019491D01*
X0059049Y0019509D01*
X0058904Y0019530D01*
X0058760Y0019556D01*
X0058616Y0019586D01*
X0058474Y0019619D01*
X0058332Y0019656D01*
X0058191Y0019697D01*
X0058052Y0019742D01*
X0057913Y0019791D01*
X0057776Y0019843D01*
X0057641Y0019900D01*
X0057507Y0019959D01*
X0057375Y0020023D01*
X0057245Y0020090D01*
X0057116Y0020160D01*
X0056989Y0020234D01*
X0056865Y0020311D01*
X0056742Y0020392D01*
X0056622Y0020476D01*
X0056504Y0020563D01*
X0056389Y0020653D01*
X0056276Y0020746D01*
X0056165Y0020843D01*
X0056057Y0020942D01*
X0055952Y0021044D01*
X0055850Y0021149D01*
X0055751Y0021257D01*
X0055654Y0021368D01*
X0055561Y0021481D01*
X0055471Y0021596D01*
X0055384Y0021714D01*
X0055300Y0021834D01*
X0055219Y0021957D01*
X0055142Y0022081D01*
X0055068Y0022208D01*
X0054998Y0022337D01*
X0054931Y0022467D01*
X0054867Y0022599D01*
X0054808Y0022733D01*
X0054751Y0022868D01*
X0054699Y0023005D01*
X0054650Y0023144D01*
X0054605Y0023283D01*
X0054564Y0023424D01*
X0054527Y0023566D01*
X0054494Y0023708D01*
X0054464Y0023852D01*
X0054438Y0023996D01*
X0054417Y0024141D01*
X0054399Y0024287D01*
X0054385Y0024433D01*
X0054375Y0024579D01*
X0054369Y0024725D01*
X0054367Y0024872D01*
X0282713Y0024872D02*
X0282715Y0025019D01*
X0282721Y0025165D01*
X0282731Y0025311D01*
X0282745Y0025457D01*
X0282763Y0025603D01*
X0282784Y0025748D01*
X0282810Y0025892D01*
X0282840Y0026036D01*
X0282873Y0026178D01*
X0282910Y0026320D01*
X0282951Y0026461D01*
X0282996Y0026600D01*
X0283045Y0026739D01*
X0283097Y0026876D01*
X0283154Y0027011D01*
X0283213Y0027145D01*
X0283277Y0027277D01*
X0283344Y0027407D01*
X0283414Y0027536D01*
X0283488Y0027663D01*
X0283565Y0027787D01*
X0283646Y0027910D01*
X0283730Y0028030D01*
X0283817Y0028148D01*
X0283907Y0028263D01*
X0284000Y0028376D01*
X0284097Y0028487D01*
X0284196Y0028595D01*
X0284298Y0028700D01*
X0284403Y0028802D01*
X0284511Y0028901D01*
X0284622Y0028998D01*
X0284735Y0029091D01*
X0284850Y0029181D01*
X0284968Y0029268D01*
X0285088Y0029352D01*
X0285211Y0029433D01*
X0285335Y0029510D01*
X0285462Y0029584D01*
X0285591Y0029654D01*
X0285721Y0029721D01*
X0285853Y0029785D01*
X0285987Y0029844D01*
X0286122Y0029901D01*
X0286259Y0029953D01*
X0286398Y0030002D01*
X0286537Y0030047D01*
X0286678Y0030088D01*
X0286820Y0030125D01*
X0286962Y0030158D01*
X0287106Y0030188D01*
X0287250Y0030214D01*
X0287395Y0030235D01*
X0287541Y0030253D01*
X0287687Y0030267D01*
X0287833Y0030277D01*
X0287979Y0030283D01*
X0288126Y0030285D01*
X0288273Y0030283D01*
X0288419Y0030277D01*
X0288565Y0030267D01*
X0288711Y0030253D01*
X0288857Y0030235D01*
X0289002Y0030214D01*
X0289146Y0030188D01*
X0289290Y0030158D01*
X0289432Y0030125D01*
X0289574Y0030088D01*
X0289715Y0030047D01*
X0289854Y0030002D01*
X0289993Y0029953D01*
X0290130Y0029901D01*
X0290265Y0029844D01*
X0290399Y0029785D01*
X0290531Y0029721D01*
X0290661Y0029654D01*
X0290790Y0029584D01*
X0290917Y0029510D01*
X0291041Y0029433D01*
X0291164Y0029352D01*
X0291284Y0029268D01*
X0291402Y0029181D01*
X0291517Y0029091D01*
X0291630Y0028998D01*
X0291741Y0028901D01*
X0291849Y0028802D01*
X0291954Y0028700D01*
X0292056Y0028595D01*
X0292155Y0028487D01*
X0292252Y0028376D01*
X0292345Y0028263D01*
X0292435Y0028148D01*
X0292522Y0028030D01*
X0292606Y0027910D01*
X0292687Y0027787D01*
X0292764Y0027663D01*
X0292838Y0027536D01*
X0292908Y0027407D01*
X0292975Y0027277D01*
X0293039Y0027145D01*
X0293098Y0027011D01*
X0293155Y0026876D01*
X0293207Y0026739D01*
X0293256Y0026600D01*
X0293301Y0026461D01*
X0293342Y0026320D01*
X0293379Y0026178D01*
X0293412Y0026036D01*
X0293442Y0025892D01*
X0293468Y0025748D01*
X0293489Y0025603D01*
X0293507Y0025457D01*
X0293521Y0025311D01*
X0293531Y0025165D01*
X0293537Y0025019D01*
X0293539Y0024872D01*
X0293537Y0024725D01*
X0293531Y0024579D01*
X0293521Y0024433D01*
X0293507Y0024287D01*
X0293489Y0024141D01*
X0293468Y0023996D01*
X0293442Y0023852D01*
X0293412Y0023708D01*
X0293379Y0023566D01*
X0293342Y0023424D01*
X0293301Y0023283D01*
X0293256Y0023144D01*
X0293207Y0023005D01*
X0293155Y0022868D01*
X0293098Y0022733D01*
X0293039Y0022599D01*
X0292975Y0022467D01*
X0292908Y0022337D01*
X0292838Y0022208D01*
X0292764Y0022081D01*
X0292687Y0021957D01*
X0292606Y0021834D01*
X0292522Y0021714D01*
X0292435Y0021596D01*
X0292345Y0021481D01*
X0292252Y0021368D01*
X0292155Y0021257D01*
X0292056Y0021149D01*
X0291954Y0021044D01*
X0291849Y0020942D01*
X0291741Y0020843D01*
X0291630Y0020746D01*
X0291517Y0020653D01*
X0291402Y0020563D01*
X0291284Y0020476D01*
X0291164Y0020392D01*
X0291041Y0020311D01*
X0290917Y0020234D01*
X0290790Y0020160D01*
X0290661Y0020090D01*
X0290531Y0020023D01*
X0290399Y0019959D01*
X0290265Y0019900D01*
X0290130Y0019843D01*
X0289993Y0019791D01*
X0289854Y0019742D01*
X0289715Y0019697D01*
X0289574Y0019656D01*
X0289432Y0019619D01*
X0289290Y0019586D01*
X0289146Y0019556D01*
X0289002Y0019530D01*
X0288857Y0019509D01*
X0288711Y0019491D01*
X0288565Y0019477D01*
X0288419Y0019467D01*
X0288273Y0019461D01*
X0288126Y0019459D01*
X0287979Y0019461D01*
X0287833Y0019467D01*
X0287687Y0019477D01*
X0287541Y0019491D01*
X0287395Y0019509D01*
X0287250Y0019530D01*
X0287106Y0019556D01*
X0286962Y0019586D01*
X0286820Y0019619D01*
X0286678Y0019656D01*
X0286537Y0019697D01*
X0286398Y0019742D01*
X0286259Y0019791D01*
X0286122Y0019843D01*
X0285987Y0019900D01*
X0285853Y0019959D01*
X0285721Y0020023D01*
X0285591Y0020090D01*
X0285462Y0020160D01*
X0285335Y0020234D01*
X0285211Y0020311D01*
X0285088Y0020392D01*
X0284968Y0020476D01*
X0284850Y0020563D01*
X0284735Y0020653D01*
X0284622Y0020746D01*
X0284511Y0020843D01*
X0284403Y0020942D01*
X0284298Y0021044D01*
X0284196Y0021149D01*
X0284097Y0021257D01*
X0284000Y0021368D01*
X0283907Y0021481D01*
X0283817Y0021596D01*
X0283730Y0021714D01*
X0283646Y0021834D01*
X0283565Y0021957D01*
X0283488Y0022081D01*
X0283414Y0022208D01*
X0283344Y0022337D01*
X0283277Y0022467D01*
X0283213Y0022599D01*
X0283154Y0022733D01*
X0283097Y0022868D01*
X0283045Y0023005D01*
X0282996Y0023144D01*
X0282951Y0023283D01*
X0282910Y0023424D01*
X0282873Y0023566D01*
X0282840Y0023708D01*
X0282810Y0023852D01*
X0282784Y0023996D01*
X0282763Y0024141D01*
X0282745Y0024287D01*
X0282731Y0024433D01*
X0282721Y0024579D01*
X0282715Y0024725D01*
X0282713Y0024872D01*
X0282713Y0217785D02*
X0282715Y0217932D01*
X0282721Y0218078D01*
X0282731Y0218224D01*
X0282745Y0218370D01*
X0282763Y0218516D01*
X0282784Y0218661D01*
X0282810Y0218805D01*
X0282840Y0218949D01*
X0282873Y0219091D01*
X0282910Y0219233D01*
X0282951Y0219374D01*
X0282996Y0219513D01*
X0283045Y0219652D01*
X0283097Y0219789D01*
X0283154Y0219924D01*
X0283213Y0220058D01*
X0283277Y0220190D01*
X0283344Y0220320D01*
X0283414Y0220449D01*
X0283488Y0220576D01*
X0283565Y0220700D01*
X0283646Y0220823D01*
X0283730Y0220943D01*
X0283817Y0221061D01*
X0283907Y0221176D01*
X0284000Y0221289D01*
X0284097Y0221400D01*
X0284196Y0221508D01*
X0284298Y0221613D01*
X0284403Y0221715D01*
X0284511Y0221814D01*
X0284622Y0221911D01*
X0284735Y0222004D01*
X0284850Y0222094D01*
X0284968Y0222181D01*
X0285088Y0222265D01*
X0285211Y0222346D01*
X0285335Y0222423D01*
X0285462Y0222497D01*
X0285591Y0222567D01*
X0285721Y0222634D01*
X0285853Y0222698D01*
X0285987Y0222757D01*
X0286122Y0222814D01*
X0286259Y0222866D01*
X0286398Y0222915D01*
X0286537Y0222960D01*
X0286678Y0223001D01*
X0286820Y0223038D01*
X0286962Y0223071D01*
X0287106Y0223101D01*
X0287250Y0223127D01*
X0287395Y0223148D01*
X0287541Y0223166D01*
X0287687Y0223180D01*
X0287833Y0223190D01*
X0287979Y0223196D01*
X0288126Y0223198D01*
X0288273Y0223196D01*
X0288419Y0223190D01*
X0288565Y0223180D01*
X0288711Y0223166D01*
X0288857Y0223148D01*
X0289002Y0223127D01*
X0289146Y0223101D01*
X0289290Y0223071D01*
X0289432Y0223038D01*
X0289574Y0223001D01*
X0289715Y0222960D01*
X0289854Y0222915D01*
X0289993Y0222866D01*
X0290130Y0222814D01*
X0290265Y0222757D01*
X0290399Y0222698D01*
X0290531Y0222634D01*
X0290661Y0222567D01*
X0290790Y0222497D01*
X0290917Y0222423D01*
X0291041Y0222346D01*
X0291164Y0222265D01*
X0291284Y0222181D01*
X0291402Y0222094D01*
X0291517Y0222004D01*
X0291630Y0221911D01*
X0291741Y0221814D01*
X0291849Y0221715D01*
X0291954Y0221613D01*
X0292056Y0221508D01*
X0292155Y0221400D01*
X0292252Y0221289D01*
X0292345Y0221176D01*
X0292435Y0221061D01*
X0292522Y0220943D01*
X0292606Y0220823D01*
X0292687Y0220700D01*
X0292764Y0220576D01*
X0292838Y0220449D01*
X0292908Y0220320D01*
X0292975Y0220190D01*
X0293039Y0220058D01*
X0293098Y0219924D01*
X0293155Y0219789D01*
X0293207Y0219652D01*
X0293256Y0219513D01*
X0293301Y0219374D01*
X0293342Y0219233D01*
X0293379Y0219091D01*
X0293412Y0218949D01*
X0293442Y0218805D01*
X0293468Y0218661D01*
X0293489Y0218516D01*
X0293507Y0218370D01*
X0293521Y0218224D01*
X0293531Y0218078D01*
X0293537Y0217932D01*
X0293539Y0217785D01*
X0293537Y0217638D01*
X0293531Y0217492D01*
X0293521Y0217346D01*
X0293507Y0217200D01*
X0293489Y0217054D01*
X0293468Y0216909D01*
X0293442Y0216765D01*
X0293412Y0216621D01*
X0293379Y0216479D01*
X0293342Y0216337D01*
X0293301Y0216196D01*
X0293256Y0216057D01*
X0293207Y0215918D01*
X0293155Y0215781D01*
X0293098Y0215646D01*
X0293039Y0215512D01*
X0292975Y0215380D01*
X0292908Y0215250D01*
X0292838Y0215121D01*
X0292764Y0214994D01*
X0292687Y0214870D01*
X0292606Y0214747D01*
X0292522Y0214627D01*
X0292435Y0214509D01*
X0292345Y0214394D01*
X0292252Y0214281D01*
X0292155Y0214170D01*
X0292056Y0214062D01*
X0291954Y0213957D01*
X0291849Y0213855D01*
X0291741Y0213756D01*
X0291630Y0213659D01*
X0291517Y0213566D01*
X0291402Y0213476D01*
X0291284Y0213389D01*
X0291164Y0213305D01*
X0291041Y0213224D01*
X0290917Y0213147D01*
X0290790Y0213073D01*
X0290661Y0213003D01*
X0290531Y0212936D01*
X0290399Y0212872D01*
X0290265Y0212813D01*
X0290130Y0212756D01*
X0289993Y0212704D01*
X0289854Y0212655D01*
X0289715Y0212610D01*
X0289574Y0212569D01*
X0289432Y0212532D01*
X0289290Y0212499D01*
X0289146Y0212469D01*
X0289002Y0212443D01*
X0288857Y0212422D01*
X0288711Y0212404D01*
X0288565Y0212390D01*
X0288419Y0212380D01*
X0288273Y0212374D01*
X0288126Y0212372D01*
X0287979Y0212374D01*
X0287833Y0212380D01*
X0287687Y0212390D01*
X0287541Y0212404D01*
X0287395Y0212422D01*
X0287250Y0212443D01*
X0287106Y0212469D01*
X0286962Y0212499D01*
X0286820Y0212532D01*
X0286678Y0212569D01*
X0286537Y0212610D01*
X0286398Y0212655D01*
X0286259Y0212704D01*
X0286122Y0212756D01*
X0285987Y0212813D01*
X0285853Y0212872D01*
X0285721Y0212936D01*
X0285591Y0213003D01*
X0285462Y0213073D01*
X0285335Y0213147D01*
X0285211Y0213224D01*
X0285088Y0213305D01*
X0284968Y0213389D01*
X0284850Y0213476D01*
X0284735Y0213566D01*
X0284622Y0213659D01*
X0284511Y0213756D01*
X0284403Y0213855D01*
X0284298Y0213957D01*
X0284196Y0214062D01*
X0284097Y0214170D01*
X0284000Y0214281D01*
X0283907Y0214394D01*
X0283817Y0214509D01*
X0283730Y0214627D01*
X0283646Y0214747D01*
X0283565Y0214870D01*
X0283488Y0214994D01*
X0283414Y0215121D01*
X0283344Y0215250D01*
X0283277Y0215380D01*
X0283213Y0215512D01*
X0283154Y0215646D01*
X0283097Y0215781D01*
X0283045Y0215918D01*
X0282996Y0216057D01*
X0282951Y0216196D01*
X0282910Y0216337D01*
X0282873Y0216479D01*
X0282840Y0216621D01*
X0282810Y0216765D01*
X0282784Y0216909D01*
X0282763Y0217054D01*
X0282745Y0217200D01*
X0282731Y0217346D01*
X0282721Y0217492D01*
X0282715Y0217638D01*
X0282713Y0217785D01*
X0054367Y0217785D02*
X0054369Y0217932D01*
X0054375Y0218078D01*
X0054385Y0218224D01*
X0054399Y0218370D01*
X0054417Y0218516D01*
X0054438Y0218661D01*
X0054464Y0218805D01*
X0054494Y0218949D01*
X0054527Y0219091D01*
X0054564Y0219233D01*
X0054605Y0219374D01*
X0054650Y0219513D01*
X0054699Y0219652D01*
X0054751Y0219789D01*
X0054808Y0219924D01*
X0054867Y0220058D01*
X0054931Y0220190D01*
X0054998Y0220320D01*
X0055068Y0220449D01*
X0055142Y0220576D01*
X0055219Y0220700D01*
X0055300Y0220823D01*
X0055384Y0220943D01*
X0055471Y0221061D01*
X0055561Y0221176D01*
X0055654Y0221289D01*
X0055751Y0221400D01*
X0055850Y0221508D01*
X0055952Y0221613D01*
X0056057Y0221715D01*
X0056165Y0221814D01*
X0056276Y0221911D01*
X0056389Y0222004D01*
X0056504Y0222094D01*
X0056622Y0222181D01*
X0056742Y0222265D01*
X0056865Y0222346D01*
X0056989Y0222423D01*
X0057116Y0222497D01*
X0057245Y0222567D01*
X0057375Y0222634D01*
X0057507Y0222698D01*
X0057641Y0222757D01*
X0057776Y0222814D01*
X0057913Y0222866D01*
X0058052Y0222915D01*
X0058191Y0222960D01*
X0058332Y0223001D01*
X0058474Y0223038D01*
X0058616Y0223071D01*
X0058760Y0223101D01*
X0058904Y0223127D01*
X0059049Y0223148D01*
X0059195Y0223166D01*
X0059341Y0223180D01*
X0059487Y0223190D01*
X0059633Y0223196D01*
X0059780Y0223198D01*
X0059927Y0223196D01*
X0060073Y0223190D01*
X0060219Y0223180D01*
X0060365Y0223166D01*
X0060511Y0223148D01*
X0060656Y0223127D01*
X0060800Y0223101D01*
X0060944Y0223071D01*
X0061086Y0223038D01*
X0061228Y0223001D01*
X0061369Y0222960D01*
X0061508Y0222915D01*
X0061647Y0222866D01*
X0061784Y0222814D01*
X0061919Y0222757D01*
X0062053Y0222698D01*
X0062185Y0222634D01*
X0062315Y0222567D01*
X0062444Y0222497D01*
X0062571Y0222423D01*
X0062695Y0222346D01*
X0062818Y0222265D01*
X0062938Y0222181D01*
X0063056Y0222094D01*
X0063171Y0222004D01*
X0063284Y0221911D01*
X0063395Y0221814D01*
X0063503Y0221715D01*
X0063608Y0221613D01*
X0063710Y0221508D01*
X0063809Y0221400D01*
X0063906Y0221289D01*
X0063999Y0221176D01*
X0064089Y0221061D01*
X0064176Y0220943D01*
X0064260Y0220823D01*
X0064341Y0220700D01*
X0064418Y0220576D01*
X0064492Y0220449D01*
X0064562Y0220320D01*
X0064629Y0220190D01*
X0064693Y0220058D01*
X0064752Y0219924D01*
X0064809Y0219789D01*
X0064861Y0219652D01*
X0064910Y0219513D01*
X0064955Y0219374D01*
X0064996Y0219233D01*
X0065033Y0219091D01*
X0065066Y0218949D01*
X0065096Y0218805D01*
X0065122Y0218661D01*
X0065143Y0218516D01*
X0065161Y0218370D01*
X0065175Y0218224D01*
X0065185Y0218078D01*
X0065191Y0217932D01*
X0065193Y0217785D01*
X0065191Y0217638D01*
X0065185Y0217492D01*
X0065175Y0217346D01*
X0065161Y0217200D01*
X0065143Y0217054D01*
X0065122Y0216909D01*
X0065096Y0216765D01*
X0065066Y0216621D01*
X0065033Y0216479D01*
X0064996Y0216337D01*
X0064955Y0216196D01*
X0064910Y0216057D01*
X0064861Y0215918D01*
X0064809Y0215781D01*
X0064752Y0215646D01*
X0064693Y0215512D01*
X0064629Y0215380D01*
X0064562Y0215250D01*
X0064492Y0215121D01*
X0064418Y0214994D01*
X0064341Y0214870D01*
X0064260Y0214747D01*
X0064176Y0214627D01*
X0064089Y0214509D01*
X0063999Y0214394D01*
X0063906Y0214281D01*
X0063809Y0214170D01*
X0063710Y0214062D01*
X0063608Y0213957D01*
X0063503Y0213855D01*
X0063395Y0213756D01*
X0063284Y0213659D01*
X0063171Y0213566D01*
X0063056Y0213476D01*
X0062938Y0213389D01*
X0062818Y0213305D01*
X0062695Y0213224D01*
X0062571Y0213147D01*
X0062444Y0213073D01*
X0062315Y0213003D01*
X0062185Y0212936D01*
X0062053Y0212872D01*
X0061919Y0212813D01*
X0061784Y0212756D01*
X0061647Y0212704D01*
X0061508Y0212655D01*
X0061369Y0212610D01*
X0061228Y0212569D01*
X0061086Y0212532D01*
X0060944Y0212499D01*
X0060800Y0212469D01*
X0060656Y0212443D01*
X0060511Y0212422D01*
X0060365Y0212404D01*
X0060219Y0212390D01*
X0060073Y0212380D01*
X0059927Y0212374D01*
X0059780Y0212372D01*
X0059633Y0212374D01*
X0059487Y0212380D01*
X0059341Y0212390D01*
X0059195Y0212404D01*
X0059049Y0212422D01*
X0058904Y0212443D01*
X0058760Y0212469D01*
X0058616Y0212499D01*
X0058474Y0212532D01*
X0058332Y0212569D01*
X0058191Y0212610D01*
X0058052Y0212655D01*
X0057913Y0212704D01*
X0057776Y0212756D01*
X0057641Y0212813D01*
X0057507Y0212872D01*
X0057375Y0212936D01*
X0057245Y0213003D01*
X0057116Y0213073D01*
X0056989Y0213147D01*
X0056865Y0213224D01*
X0056742Y0213305D01*
X0056622Y0213389D01*
X0056504Y0213476D01*
X0056389Y0213566D01*
X0056276Y0213659D01*
X0056165Y0213756D01*
X0056057Y0213855D01*
X0055952Y0213957D01*
X0055850Y0214062D01*
X0055751Y0214170D01*
X0055654Y0214281D01*
X0055561Y0214394D01*
X0055471Y0214509D01*
X0055384Y0214627D01*
X0055300Y0214747D01*
X0055219Y0214870D01*
X0055142Y0214994D01*
X0055068Y0215121D01*
X0054998Y0215250D01*
X0054931Y0215380D01*
X0054867Y0215512D01*
X0054808Y0215646D01*
X0054751Y0215781D01*
X0054699Y0215918D01*
X0054650Y0216057D01*
X0054605Y0216196D01*
X0054564Y0216337D01*
X0054527Y0216479D01*
X0054494Y0216621D01*
X0054464Y0216765D01*
X0054438Y0216909D01*
X0054417Y0217054D01*
X0054399Y0217200D01*
X0054385Y0217346D01*
X0054375Y0217492D01*
X0054369Y0217638D01*
X0054367Y0217785D01*
D11*
X0296000Y0271093D03*
X0306000Y0271093D03*
X0316000Y0271093D03*
X0326000Y0271093D03*
X0336000Y0271093D03*
X0346000Y0271093D03*
X0356000Y0271093D03*
X0366000Y0271093D03*
X0376000Y0271093D03*
X0386000Y0271093D03*
D12*
X0301000Y0146093D03*
X0301000Y0136093D03*
X0301000Y0126093D03*
X0301000Y0116093D03*
X0301000Y0106093D03*
X0301000Y0096093D03*
X0261000Y0096093D03*
X0261000Y0106093D03*
X0261000Y0116093D03*
X0261000Y0126093D03*
X0261000Y0136093D03*
X0261000Y0146093D03*
D13*
X0259000Y0076093D02*
X0253000Y0076093D01*
X0253000Y0066093D02*
X0259000Y0066093D01*
X0259000Y0056093D02*
X0253000Y0056093D01*
X0253000Y0046093D02*
X0259000Y0046093D01*
X0259000Y0036093D02*
X0253000Y0036093D01*
X0253000Y0026093D02*
X0259000Y0026093D01*
X0019000Y0136093D02*
X0013000Y0136093D01*
X0013000Y0146093D02*
X0019000Y0146093D01*
X0019000Y0176093D02*
X0013000Y0176093D01*
X0013000Y0186093D02*
X0019000Y0186093D01*
X0019000Y0196093D02*
X0013000Y0196093D01*
X0013000Y0206093D02*
X0019000Y0206093D01*
X0019000Y0216093D02*
X0013000Y0216093D01*
X0013000Y0226093D02*
X0019000Y0226093D01*
X0019000Y0281093D02*
X0013000Y0281093D01*
X0013000Y0291093D02*
X0019000Y0291093D01*
X0086000Y0293093D02*
X0086000Y0299093D01*
X0096000Y0299093D02*
X0096000Y0293093D01*
X0106000Y0293093D02*
X0106000Y0299093D01*
X0136000Y0299093D02*
X0136000Y0293093D01*
X0146000Y0293093D02*
X0146000Y0299093D01*
X0156000Y0299093D02*
X0156000Y0293093D01*
X0181000Y0293093D02*
X0181000Y0299093D01*
X0191000Y0299093D02*
X0191000Y0293093D01*
X0201000Y0293093D02*
X0201000Y0299093D01*
X0231000Y0299093D02*
X0231000Y0293093D01*
X0241000Y0293093D02*
X0241000Y0299093D01*
X0251000Y0299093D02*
X0251000Y0293093D01*
X0296000Y0293093D02*
X0296000Y0299093D01*
X0306000Y0299093D02*
X0306000Y0293093D01*
X0316000Y0293093D02*
X0316000Y0299093D01*
X0326000Y0299093D02*
X0326000Y0293093D01*
X0336000Y0293093D02*
X0336000Y0299093D01*
X0346000Y0299093D02*
X0346000Y0293093D01*
X0356000Y0293093D02*
X0356000Y0299093D01*
X0366000Y0299093D02*
X0366000Y0293093D01*
X0376000Y0293093D02*
X0376000Y0299093D01*
X0386000Y0299093D02*
X0386000Y0293093D01*
D14*
X0041000Y0166093D03*
X0041000Y0126093D03*
X0036000Y0261093D03*
X0036000Y0301093D03*
D15*
X0106000Y0271093D03*
X0106000Y0261093D03*
X0146000Y0261093D03*
X0146000Y0271093D03*
X0191000Y0271093D03*
X0191000Y0261093D03*
X0241000Y0261093D03*
X0241000Y0271093D03*
D16*
X0078953Y0212785D03*
D17*
X0088900Y0212793D03*
X0098900Y0212793D03*
X0098900Y0222793D03*
X0088900Y0222793D03*
X0078900Y0222793D03*
X0108900Y0222793D03*
X0118900Y0222793D03*
X0128900Y0222793D03*
X0138900Y0222793D03*
X0148900Y0222793D03*
X0158900Y0222793D03*
X0168900Y0222793D03*
X0178900Y0222793D03*
X0188900Y0222793D03*
X0198900Y0222793D03*
X0208900Y0222793D03*
X0218900Y0222793D03*
X0228900Y0222793D03*
X0238900Y0222793D03*
X0248900Y0222793D03*
X0258900Y0222793D03*
X0268900Y0222793D03*
X0268900Y0212793D03*
X0258900Y0212793D03*
X0248900Y0212793D03*
X0238900Y0212793D03*
X0228900Y0212793D03*
X0218900Y0212793D03*
X0208900Y0212793D03*
X0198900Y0212793D03*
X0188900Y0212793D03*
X0178900Y0212793D03*
X0168900Y0212793D03*
X0158900Y0212793D03*
X0148900Y0212793D03*
X0138900Y0212793D03*
X0128900Y0212793D03*
X0118900Y0212793D03*
X0108900Y0212793D03*
D18*
X0106000Y0242352D03*
X0106000Y0249833D03*
X0146000Y0249833D03*
X0146000Y0242352D03*
X0191000Y0242352D03*
X0191000Y0249833D03*
X0241000Y0249833D03*
X0241000Y0242352D03*
X0296000Y0252352D03*
X0296000Y0259833D03*
X0306000Y0259833D03*
X0306000Y0252352D03*
X0316000Y0252352D03*
X0316000Y0259833D03*
X0326000Y0259833D03*
X0326000Y0252352D03*
D19*
X0107240Y0146093D03*
X0099760Y0146093D03*
X0084740Y0276093D03*
X0077260Y0276093D03*
D20*
X0063500Y0276093D03*
X0056000Y0281093D03*
X0056000Y0271093D03*
X0076000Y0151093D03*
X0083500Y0146093D03*
X0076000Y0141093D03*
D21*
X0311000Y0176093D03*
D22*
X0311000Y0186093D03*
X0311000Y0196093D03*
X0311000Y0206093D03*
D23*
X0268500Y0181593D03*
X0258500Y0181593D03*
X0248500Y0181593D03*
X0238500Y0181593D03*
X0228500Y0181593D03*
X0218500Y0181593D03*
X0208500Y0181593D03*
X0198500Y0181593D03*
X0188500Y0181593D03*
X0178500Y0181593D03*
X0168500Y0181593D03*
X0158500Y0181593D03*
X0148500Y0181593D03*
X0138500Y0181593D03*
X0128500Y0181593D03*
X0118500Y0181593D03*
X0108500Y0181593D03*
X0098500Y0181593D03*
X0088500Y0181593D03*
X0078500Y0181593D03*
X0078500Y0171593D03*
X0088500Y0171593D03*
X0098500Y0171593D03*
X0108500Y0171593D03*
X0118500Y0171593D03*
X0128500Y0171593D03*
X0138500Y0171593D03*
X0148500Y0171593D03*
X0158500Y0171593D03*
X0168500Y0171593D03*
X0178500Y0171593D03*
X0188500Y0171593D03*
X0198500Y0171593D03*
X0208500Y0171593D03*
X0218500Y0171593D03*
X0228500Y0171593D03*
X0238500Y0171593D03*
X0248500Y0171593D03*
X0258500Y0171593D03*
X0268500Y0171593D03*
X0201000Y0116093D03*
X0191000Y0116093D03*
X0181000Y0116093D03*
X0171000Y0116093D03*
X0161000Y0116093D03*
X0151000Y0116093D03*
X0141000Y0116093D03*
X0131000Y0116093D03*
X0121000Y0116093D03*
X0111000Y0116093D03*
X0101000Y0116093D03*
X0091000Y0116093D03*
X0081000Y0116093D03*
X0071000Y0116093D03*
X0061000Y0116093D03*
X0051000Y0116093D03*
X0051000Y0106093D03*
X0061000Y0106093D03*
X0071000Y0106093D03*
X0081000Y0106093D03*
X0091000Y0106093D03*
X0101000Y0106093D03*
X0111000Y0106093D03*
X0121000Y0106093D03*
X0131000Y0106093D03*
X0141000Y0106093D03*
X0151000Y0106093D03*
X0161000Y0106093D03*
X0171000Y0106093D03*
X0181000Y0106093D03*
X0191000Y0106093D03*
X0201000Y0106093D03*
X0201000Y0096093D03*
X0191000Y0096093D03*
X0181000Y0096093D03*
X0171000Y0096093D03*
X0161000Y0096093D03*
X0151000Y0096093D03*
X0141000Y0096093D03*
X0131000Y0096093D03*
X0121000Y0096093D03*
X0111000Y0096093D03*
X0101000Y0096093D03*
X0091000Y0096093D03*
X0081000Y0096093D03*
X0071000Y0096093D03*
X0061000Y0096093D03*
X0051000Y0096093D03*
X0051000Y0086093D03*
X0061000Y0086093D03*
X0071000Y0086093D03*
X0081000Y0086093D03*
X0091000Y0086093D03*
X0101000Y0086093D03*
X0111000Y0086093D03*
X0121000Y0086093D03*
X0131000Y0086093D03*
X0141000Y0086093D03*
X0151000Y0086093D03*
X0161000Y0086093D03*
X0171000Y0086093D03*
X0181000Y0086093D03*
X0191000Y0086093D03*
X0201000Y0086093D03*
X0201000Y0076093D03*
X0191000Y0076093D03*
X0181000Y0076093D03*
X0171000Y0076093D03*
X0161000Y0076093D03*
X0151000Y0076093D03*
X0141000Y0076093D03*
X0131000Y0076093D03*
X0121000Y0076093D03*
X0111000Y0076093D03*
X0101000Y0076093D03*
X0091000Y0076093D03*
X0081000Y0076093D03*
X0071000Y0076093D03*
X0061000Y0076093D03*
X0051000Y0076093D03*
X0051000Y0066093D03*
X0061000Y0066093D03*
X0071000Y0066093D03*
X0081000Y0066093D03*
X0091000Y0066093D03*
X0101000Y0066093D03*
X0111000Y0066093D03*
X0121000Y0066093D03*
X0131000Y0066093D03*
X0141000Y0066093D03*
X0151000Y0066093D03*
X0161000Y0066093D03*
X0171000Y0066093D03*
X0181000Y0066093D03*
X0191000Y0066093D03*
X0201000Y0066093D03*
X0201000Y0056093D03*
X0191000Y0056093D03*
X0181000Y0056093D03*
X0171000Y0056093D03*
X0161000Y0056093D03*
X0151000Y0056093D03*
X0141000Y0056093D03*
X0131000Y0056093D03*
X0121000Y0056093D03*
X0111000Y0056093D03*
X0101000Y0056093D03*
X0091000Y0056093D03*
X0081000Y0056093D03*
X0071000Y0056093D03*
X0061000Y0056093D03*
X0051000Y0056093D03*
X0051000Y0046093D03*
X0061000Y0046093D03*
X0071000Y0046093D03*
X0081000Y0046093D03*
X0091000Y0046093D03*
X0101000Y0046093D03*
X0111000Y0046093D03*
X0121000Y0046093D03*
X0131000Y0046093D03*
X0141000Y0046093D03*
X0151000Y0046093D03*
X0161000Y0046093D03*
X0171000Y0046093D03*
X0181000Y0046093D03*
X0191000Y0046093D03*
X0201000Y0046093D03*
D24*
X0051000Y0046093D01*
X0046000Y0046093D01*
X0045638Y0046097D01*
X0045275Y0046111D01*
X0044913Y0046132D01*
X0044552Y0046163D01*
X0044192Y0046202D01*
X0043833Y0046250D01*
X0043475Y0046307D01*
X0043118Y0046372D01*
X0042763Y0046446D01*
X0042410Y0046529D01*
X0042059Y0046620D01*
X0041711Y0046719D01*
X0041365Y0046827D01*
X0041021Y0046943D01*
X0040681Y0047068D01*
X0040344Y0047200D01*
X0040010Y0047341D01*
X0039679Y0047490D01*
X0039352Y0047647D01*
X0039029Y0047811D01*
X0038710Y0047983D01*
X0038396Y0048163D01*
X0038085Y0048351D01*
X0037780Y0048546D01*
X0037479Y0048748D01*
X0037183Y0048958D01*
X0036893Y0049174D01*
X0036607Y0049398D01*
X0036327Y0049628D01*
X0036053Y0049865D01*
X0035785Y0050109D01*
X0035522Y0050359D01*
X0035266Y0050615D01*
X0035016Y0050878D01*
X0034772Y0051146D01*
X0034535Y0051420D01*
X0034305Y0051700D01*
X0034081Y0051986D01*
X0033865Y0052276D01*
X0033655Y0052572D01*
X0033453Y0052873D01*
X0033258Y0053178D01*
X0033070Y0053489D01*
X0032890Y0053803D01*
X0032718Y0054122D01*
X0032554Y0054445D01*
X0032397Y0054772D01*
X0032248Y0055103D01*
X0032107Y0055437D01*
X0031975Y0055774D01*
X0031850Y0056114D01*
X0031734Y0056458D01*
X0031626Y0056804D01*
X0031527Y0057152D01*
X0031436Y0057503D01*
X0031353Y0057856D01*
X0031279Y0058211D01*
X0031214Y0058568D01*
X0031157Y0058926D01*
X0031109Y0059285D01*
X0031070Y0059645D01*
X0031039Y0060006D01*
X0031018Y0060368D01*
X0031004Y0060731D01*
X0031000Y0061093D01*
X0031000Y0131093D01*
X0030996Y0131455D01*
X0030982Y0131818D01*
X0030961Y0132180D01*
X0030930Y0132541D01*
X0030891Y0132901D01*
X0030843Y0133260D01*
X0030786Y0133618D01*
X0030721Y0133975D01*
X0030647Y0134330D01*
X0030564Y0134683D01*
X0030473Y0135034D01*
X0030374Y0135382D01*
X0030266Y0135728D01*
X0030150Y0136072D01*
X0030025Y0136412D01*
X0029893Y0136749D01*
X0029752Y0137083D01*
X0029603Y0137414D01*
X0029446Y0137741D01*
X0029282Y0138064D01*
X0029110Y0138383D01*
X0028930Y0138697D01*
X0028742Y0139008D01*
X0028547Y0139313D01*
X0028345Y0139614D01*
X0028135Y0139910D01*
X0027919Y0140200D01*
X0027695Y0140486D01*
X0027465Y0140766D01*
X0027228Y0141040D01*
X0026984Y0141308D01*
X0026734Y0141571D01*
X0026478Y0141827D01*
X0026215Y0142077D01*
X0025947Y0142321D01*
X0025673Y0142558D01*
X0025393Y0142788D01*
X0025107Y0143012D01*
X0024817Y0143228D01*
X0024521Y0143438D01*
X0024220Y0143640D01*
X0023915Y0143835D01*
X0023604Y0144023D01*
X0023290Y0144203D01*
X0022971Y0144375D01*
X0022648Y0144539D01*
X0022321Y0144696D01*
X0021990Y0144845D01*
X0021656Y0144986D01*
X0021319Y0145118D01*
X0020979Y0145243D01*
X0020635Y0145359D01*
X0020289Y0145467D01*
X0019941Y0145566D01*
X0019590Y0145657D01*
X0019237Y0145740D01*
X0018882Y0145814D01*
X0018525Y0145879D01*
X0018167Y0145936D01*
X0017808Y0145984D01*
X0017448Y0146023D01*
X0017087Y0146054D01*
X0016725Y0146075D01*
X0016362Y0146089D01*
X0016000Y0146093D01*
X0026000Y0146093D01*
X0026422Y0146158D01*
X0026843Y0146234D01*
X0027261Y0146320D01*
X0027677Y0146416D01*
X0028091Y0146522D01*
X0028502Y0146638D01*
X0028911Y0146763D01*
X0029316Y0146899D01*
X0029717Y0147044D01*
X0030116Y0147200D01*
X0030510Y0147364D01*
X0030900Y0147538D01*
X0031286Y0147722D01*
X0031667Y0147915D01*
X0032043Y0148116D01*
X0032415Y0148327D01*
X0032781Y0148547D01*
X0033142Y0148776D01*
X0033497Y0149013D01*
X0033846Y0149259D01*
X0034190Y0149513D01*
X0034527Y0149776D01*
X0034858Y0150046D01*
X0035182Y0150325D01*
X0035499Y0150611D01*
X0035809Y0150904D01*
X0036112Y0151206D01*
X0036408Y0151514D01*
X0036696Y0151829D01*
X0036976Y0152152D01*
X0037249Y0152481D01*
X0037513Y0152816D01*
X0037770Y0153158D01*
X0038018Y0153506D01*
X0038257Y0153859D01*
X0038488Y0154219D01*
X0038710Y0154584D01*
X0038923Y0154954D01*
X0039128Y0155329D01*
X0039323Y0155709D01*
X0039509Y0156094D01*
X0039685Y0156483D01*
X0039852Y0156876D01*
X0040010Y0157273D01*
X0040158Y0157674D01*
X0040296Y0158078D01*
X0040424Y0158486D01*
X0040543Y0158896D01*
X0040651Y0159309D01*
X0040750Y0159725D01*
X0040838Y0160143D01*
X0040916Y0160563D01*
X0040984Y0160985D01*
X0041042Y0161408D01*
X0041090Y0161832D01*
X0041128Y0162258D01*
X0041155Y0162684D01*
X0041171Y0163111D01*
X0041178Y0163538D01*
X0041174Y0163965D01*
X0041160Y0164392D01*
X0041135Y0164819D01*
X0041101Y0165245D01*
X0041056Y0165669D01*
X0041000Y0166093D01*
X0026000Y0166093D01*
X0025758Y0166096D01*
X0025517Y0166105D01*
X0025276Y0166119D01*
X0025035Y0166140D01*
X0024795Y0166166D01*
X0024555Y0166198D01*
X0024316Y0166236D01*
X0024079Y0166279D01*
X0023842Y0166329D01*
X0023607Y0166384D01*
X0023373Y0166444D01*
X0023141Y0166511D01*
X0022910Y0166582D01*
X0022681Y0166660D01*
X0022454Y0166743D01*
X0022229Y0166831D01*
X0022006Y0166925D01*
X0021786Y0167024D01*
X0021568Y0167129D01*
X0021353Y0167238D01*
X0021140Y0167353D01*
X0020930Y0167473D01*
X0020724Y0167598D01*
X0020520Y0167728D01*
X0020319Y0167863D01*
X0020122Y0168003D01*
X0019928Y0168147D01*
X0019738Y0168296D01*
X0019552Y0168450D01*
X0019369Y0168608D01*
X0019190Y0168770D01*
X0019015Y0168937D01*
X0018844Y0169108D01*
X0018677Y0169283D01*
X0018515Y0169462D01*
X0018357Y0169645D01*
X0018203Y0169831D01*
X0018054Y0170021D01*
X0017910Y0170215D01*
X0017770Y0170412D01*
X0017635Y0170613D01*
X0017505Y0170817D01*
X0017380Y0171023D01*
X0017260Y0171233D01*
X0017145Y0171446D01*
X0017036Y0171661D01*
X0016931Y0171879D01*
X0016832Y0172099D01*
X0016738Y0172322D01*
X0016650Y0172547D01*
X0016567Y0172774D01*
X0016489Y0173003D01*
X0016418Y0173234D01*
X0016351Y0173466D01*
X0016291Y0173700D01*
X0016236Y0173935D01*
X0016186Y0174172D01*
X0016143Y0174409D01*
X0016105Y0174648D01*
X0016073Y0174888D01*
X0016047Y0175128D01*
X0016026Y0175369D01*
X0016012Y0175610D01*
X0016003Y0175851D01*
X0016000Y0176093D01*
X0041000Y0166093D02*
X0041000Y0226093D01*
X0041003Y0226335D01*
X0041012Y0226576D01*
X0041026Y0226817D01*
X0041047Y0227058D01*
X0041073Y0227298D01*
X0041105Y0227538D01*
X0041143Y0227777D01*
X0041186Y0228014D01*
X0041236Y0228251D01*
X0041291Y0228486D01*
X0041351Y0228720D01*
X0041418Y0228952D01*
X0041489Y0229183D01*
X0041567Y0229412D01*
X0041650Y0229639D01*
X0041738Y0229864D01*
X0041832Y0230087D01*
X0041931Y0230307D01*
X0042036Y0230525D01*
X0042145Y0230740D01*
X0042260Y0230953D01*
X0042380Y0231163D01*
X0042505Y0231369D01*
X0042635Y0231573D01*
X0042770Y0231774D01*
X0042910Y0231971D01*
X0043054Y0232165D01*
X0043203Y0232355D01*
X0043357Y0232541D01*
X0043515Y0232724D01*
X0043677Y0232903D01*
X0043844Y0233078D01*
X0044015Y0233249D01*
X0044190Y0233416D01*
X0044369Y0233578D01*
X0044552Y0233736D01*
X0044738Y0233890D01*
X0044928Y0234039D01*
X0045122Y0234183D01*
X0045319Y0234323D01*
X0045520Y0234458D01*
X0045724Y0234588D01*
X0045930Y0234713D01*
X0046140Y0234833D01*
X0046353Y0234948D01*
X0046568Y0235057D01*
X0046786Y0235162D01*
X0047006Y0235261D01*
X0047229Y0235355D01*
X0047454Y0235443D01*
X0047681Y0235526D01*
X0047910Y0235604D01*
X0048141Y0235675D01*
X0048373Y0235742D01*
X0048607Y0235802D01*
X0048842Y0235857D01*
X0049079Y0235907D01*
X0049316Y0235950D01*
X0049555Y0235988D01*
X0049795Y0236020D01*
X0050035Y0236046D01*
X0050276Y0236067D01*
X0050517Y0236081D01*
X0050758Y0236090D01*
X0051000Y0236093D01*
X0051000Y0241093D01*
X0050998Y0241233D01*
X0050992Y0241373D01*
X0050982Y0241513D01*
X0050969Y0241653D01*
X0050951Y0241792D01*
X0050929Y0241931D01*
X0050904Y0242068D01*
X0050875Y0242206D01*
X0050842Y0242342D01*
X0050805Y0242477D01*
X0050764Y0242611D01*
X0050719Y0242744D01*
X0050671Y0242876D01*
X0050619Y0243006D01*
X0050564Y0243135D01*
X0050505Y0243262D01*
X0050442Y0243388D01*
X0050376Y0243512D01*
X0050307Y0243633D01*
X0050234Y0243753D01*
X0050157Y0243871D01*
X0050078Y0243986D01*
X0049995Y0244100D01*
X0049909Y0244210D01*
X0049820Y0244319D01*
X0049728Y0244425D01*
X0049633Y0244528D01*
X0049536Y0244629D01*
X0049435Y0244726D01*
X0049332Y0244821D01*
X0049226Y0244913D01*
X0049117Y0245002D01*
X0049007Y0245088D01*
X0048893Y0245171D01*
X0048778Y0245250D01*
X0048660Y0245327D01*
X0048540Y0245400D01*
X0048419Y0245469D01*
X0048295Y0245535D01*
X0048169Y0245598D01*
X0048042Y0245657D01*
X0047913Y0245712D01*
X0047783Y0245764D01*
X0047651Y0245812D01*
X0047518Y0245857D01*
X0047384Y0245898D01*
X0047249Y0245935D01*
X0047113Y0245968D01*
X0046975Y0245997D01*
X0046838Y0246022D01*
X0046699Y0246044D01*
X0046560Y0246062D01*
X0046420Y0246075D01*
X0046280Y0246085D01*
X0046140Y0246091D01*
X0046000Y0246093D01*
X0016000Y0246093D01*
X0036000Y0261093D02*
X0035994Y0261576D01*
X0035977Y0262059D01*
X0035947Y0262542D01*
X0035907Y0263023D01*
X0035854Y0263504D01*
X0035790Y0263983D01*
X0035715Y0264460D01*
X0035627Y0264936D01*
X0035529Y0265409D01*
X0035419Y0265879D01*
X0035298Y0266347D01*
X0035165Y0266812D01*
X0035021Y0267273D01*
X0034866Y0267731D01*
X0034700Y0268185D01*
X0034523Y0268635D01*
X0034336Y0269080D01*
X0034137Y0269521D01*
X0033929Y0269957D01*
X0033709Y0270387D01*
X0033479Y0270813D01*
X0033239Y0271232D01*
X0032989Y0271646D01*
X0032729Y0272053D01*
X0032460Y0272454D01*
X0032180Y0272849D01*
X0031892Y0273236D01*
X0031593Y0273617D01*
X0031286Y0273990D01*
X0030970Y0274355D01*
X0030645Y0274713D01*
X0030312Y0275063D01*
X0029970Y0275405D01*
X0029620Y0275738D01*
X0029262Y0276063D01*
X0028897Y0276379D01*
X0028524Y0276686D01*
X0028143Y0276985D01*
X0027756Y0277273D01*
X0027361Y0277553D01*
X0026960Y0277822D01*
X0026553Y0278082D01*
X0026139Y0278332D01*
X0025720Y0278572D01*
X0025294Y0278802D01*
X0024864Y0279022D01*
X0024428Y0279230D01*
X0023987Y0279429D01*
X0023542Y0279616D01*
X0023092Y0279793D01*
X0022638Y0279959D01*
X0022180Y0280114D01*
X0021719Y0280258D01*
X0021254Y0280391D01*
X0020786Y0280512D01*
X0020316Y0280622D01*
X0019843Y0280720D01*
X0019367Y0280808D01*
X0018890Y0280883D01*
X0018411Y0280947D01*
X0017930Y0281000D01*
X0017449Y0281040D01*
X0016966Y0281070D01*
X0016483Y0281087D01*
X0016000Y0281093D01*
X0036000Y0261093D02*
X0036000Y0261093D01*
X0036003Y0261335D01*
X0036012Y0261576D01*
X0036026Y0261817D01*
X0036047Y0262058D01*
X0036073Y0262298D01*
X0036105Y0262538D01*
X0036143Y0262777D01*
X0036186Y0263014D01*
X0036236Y0263251D01*
X0036291Y0263486D01*
X0036351Y0263720D01*
X0036418Y0263952D01*
X0036489Y0264183D01*
X0036567Y0264412D01*
X0036650Y0264639D01*
X0036738Y0264864D01*
X0036832Y0265087D01*
X0036931Y0265307D01*
X0037036Y0265525D01*
X0037145Y0265740D01*
X0037260Y0265953D01*
X0037380Y0266163D01*
X0037505Y0266369D01*
X0037635Y0266573D01*
X0037770Y0266774D01*
X0037910Y0266971D01*
X0038054Y0267165D01*
X0038203Y0267355D01*
X0038357Y0267541D01*
X0038515Y0267724D01*
X0038677Y0267903D01*
X0038844Y0268078D01*
X0039015Y0268249D01*
X0039190Y0268416D01*
X0039369Y0268578D01*
X0039552Y0268736D01*
X0039738Y0268890D01*
X0039928Y0269039D01*
X0040122Y0269183D01*
X0040319Y0269323D01*
X0040520Y0269458D01*
X0040724Y0269588D01*
X0040930Y0269713D01*
X0041140Y0269833D01*
X0041353Y0269948D01*
X0041568Y0270057D01*
X0041786Y0270162D01*
X0042006Y0270261D01*
X0042229Y0270355D01*
X0042454Y0270443D01*
X0042681Y0270526D01*
X0042910Y0270604D01*
X0043141Y0270675D01*
X0043373Y0270742D01*
X0043607Y0270802D01*
X0043842Y0270857D01*
X0044079Y0270907D01*
X0044316Y0270950D01*
X0044555Y0270988D01*
X0044795Y0271020D01*
X0045035Y0271046D01*
X0045276Y0271067D01*
X0045517Y0271081D01*
X0045758Y0271090D01*
X0046000Y0271093D01*
X0056000Y0271093D01*
X0098460Y0242352D02*
X0106000Y0242352D01*
X0146000Y0242352D01*
X0191000Y0242352D01*
X0241000Y0242352D01*
X0241002Y0242321D01*
X0241008Y0242290D01*
X0241017Y0242260D01*
X0241030Y0242231D01*
X0241046Y0242204D01*
X0241065Y0242180D01*
X0241088Y0242157D01*
X0241112Y0242138D01*
X0241139Y0242122D01*
X0241168Y0242109D01*
X0241198Y0242100D01*
X0241229Y0242094D01*
X0241260Y0242092D01*
X0241260Y0242093D02*
X0367000Y0242093D01*
X0363000Y0252093D02*
X0326260Y0252093D01*
X0326260Y0252092D02*
X0326229Y0252094D01*
X0326198Y0252100D01*
X0326168Y0252109D01*
X0326139Y0252122D01*
X0326112Y0252138D01*
X0326088Y0252157D01*
X0326065Y0252180D01*
X0326046Y0252204D01*
X0326030Y0252231D01*
X0326017Y0252260D01*
X0326008Y0252290D01*
X0326002Y0252321D01*
X0326000Y0252352D01*
X0296000Y0252352D01*
X0363000Y0252093D02*
X0363314Y0252097D01*
X0363628Y0252108D01*
X0363942Y0252127D01*
X0364255Y0252154D01*
X0364567Y0252188D01*
X0364878Y0252229D01*
X0365189Y0252279D01*
X0365498Y0252335D01*
X0365805Y0252399D01*
X0366111Y0252471D01*
X0366415Y0252550D01*
X0366717Y0252636D01*
X0367017Y0252729D01*
X0367315Y0252830D01*
X0367610Y0252938D01*
X0367902Y0253053D01*
X0368192Y0253175D01*
X0368478Y0253304D01*
X0368761Y0253439D01*
X0369041Y0253582D01*
X0369318Y0253731D01*
X0369590Y0253887D01*
X0369859Y0254050D01*
X0370124Y0254219D01*
X0370385Y0254394D01*
X0370641Y0254576D01*
X0370893Y0254763D01*
X0371140Y0254957D01*
X0371383Y0255157D01*
X0371621Y0255362D01*
X0371853Y0255574D01*
X0372081Y0255790D01*
X0372303Y0256012D01*
X0372519Y0256240D01*
X0372731Y0256472D01*
X0372936Y0256710D01*
X0373136Y0256953D01*
X0373330Y0257200D01*
X0373517Y0257452D01*
X0373699Y0257708D01*
X0373874Y0257969D01*
X0374043Y0258234D01*
X0374206Y0258503D01*
X0374362Y0258775D01*
X0374511Y0259052D01*
X0374654Y0259332D01*
X0374789Y0259615D01*
X0374918Y0259901D01*
X0375040Y0260191D01*
X0375155Y0260483D01*
X0375263Y0260778D01*
X0375364Y0261076D01*
X0375457Y0261376D01*
X0375543Y0261678D01*
X0375622Y0261982D01*
X0375694Y0262288D01*
X0375758Y0262595D01*
X0375814Y0262904D01*
X0375864Y0263215D01*
X0375905Y0263526D01*
X0375939Y0263838D01*
X0375966Y0264151D01*
X0375985Y0264465D01*
X0375996Y0264779D01*
X0376000Y0265093D01*
X0376000Y0271093D01*
X0386000Y0271093D02*
X0386000Y0261093D01*
X0386000Y0271093D02*
X0386000Y0296093D01*
X0376000Y0296093D01*
X0386000Y0261093D02*
X0385994Y0260634D01*
X0385978Y0260175D01*
X0385950Y0259717D01*
X0385911Y0259259D01*
X0385861Y0258803D01*
X0385801Y0258348D01*
X0385729Y0257894D01*
X0385646Y0257443D01*
X0385552Y0256993D01*
X0385448Y0256546D01*
X0385333Y0256102D01*
X0385207Y0255660D01*
X0385070Y0255222D01*
X0384923Y0254787D01*
X0384765Y0254356D01*
X0384597Y0253928D01*
X0384419Y0253505D01*
X0384231Y0253086D01*
X0384032Y0252672D01*
X0383824Y0252263D01*
X0383605Y0251859D01*
X0383377Y0251461D01*
X0383140Y0251068D01*
X0382893Y0250681D01*
X0382637Y0250300D01*
X0382371Y0249925D01*
X0382097Y0249557D01*
X0381814Y0249195D01*
X0381522Y0248841D01*
X0381222Y0248494D01*
X0380913Y0248154D01*
X0380596Y0247821D01*
X0380272Y0247497D01*
X0379939Y0247180D01*
X0379599Y0246871D01*
X0379252Y0246571D01*
X0378898Y0246279D01*
X0378536Y0245996D01*
X0378168Y0245722D01*
X0377793Y0245456D01*
X0377412Y0245200D01*
X0377025Y0244953D01*
X0376632Y0244716D01*
X0376234Y0244488D01*
X0375830Y0244269D01*
X0375421Y0244061D01*
X0375007Y0243862D01*
X0374588Y0243674D01*
X0374165Y0243496D01*
X0373737Y0243328D01*
X0373306Y0243170D01*
X0372871Y0243023D01*
X0372433Y0242886D01*
X0371991Y0242760D01*
X0371547Y0242645D01*
X0371100Y0242541D01*
X0370650Y0242447D01*
X0370199Y0242364D01*
X0369745Y0242292D01*
X0369290Y0242232D01*
X0368834Y0242182D01*
X0368376Y0242143D01*
X0367918Y0242115D01*
X0367459Y0242099D01*
X0367000Y0242093D01*
X0261000Y0126093D02*
X0231000Y0126093D01*
X0230883Y0126091D01*
X0230766Y0126085D01*
X0230650Y0126075D01*
X0230533Y0126062D01*
X0230418Y0126044D01*
X0230303Y0126023D01*
X0230189Y0125998D01*
X0230075Y0125969D01*
X0229963Y0125936D01*
X0229852Y0125899D01*
X0229742Y0125859D01*
X0229634Y0125815D01*
X0229527Y0125768D01*
X0229421Y0125717D01*
X0229318Y0125662D01*
X0229216Y0125604D01*
X0229117Y0125543D01*
X0229019Y0125479D01*
X0228924Y0125411D01*
X0228831Y0125340D01*
X0228740Y0125266D01*
X0228652Y0125189D01*
X0228567Y0125109D01*
X0228484Y0125026D01*
X0228404Y0124941D01*
X0228327Y0124853D01*
X0228253Y0124762D01*
X0228182Y0124669D01*
X0228114Y0124574D01*
X0228050Y0124476D01*
X0227989Y0124377D01*
X0227931Y0124275D01*
X0227876Y0124172D01*
X0227825Y0124066D01*
X0227778Y0123959D01*
X0227734Y0123851D01*
X0227694Y0123741D01*
X0227657Y0123630D01*
X0227624Y0123518D01*
X0227595Y0123404D01*
X0227570Y0123290D01*
X0227549Y0123175D01*
X0227531Y0123060D01*
X0227518Y0122943D01*
X0227508Y0122827D01*
X0227502Y0122710D01*
X0227500Y0122593D01*
X0227500Y0123093D01*
X0227500Y0122593D02*
X0227498Y0122433D01*
X0227492Y0122274D01*
X0227482Y0122115D01*
X0227469Y0121956D01*
X0227451Y0121797D01*
X0227430Y0121639D01*
X0227404Y0121482D01*
X0227375Y0121325D01*
X0227342Y0121169D01*
X0227305Y0121014D01*
X0227265Y0120859D01*
X0227220Y0120706D01*
X0227172Y0120554D01*
X0227120Y0120403D01*
X0227064Y0120254D01*
X0227005Y0120106D01*
X0226942Y0119959D01*
X0226876Y0119814D01*
X0226806Y0119671D01*
X0226732Y0119529D01*
X0226656Y0119389D01*
X0226575Y0119251D01*
X0226492Y0119116D01*
X0226405Y0118982D01*
X0226314Y0118850D01*
X0226221Y0118721D01*
X0226124Y0118594D01*
X0226025Y0118469D01*
X0225922Y0118347D01*
X0225816Y0118228D01*
X0225708Y0118111D01*
X0225596Y0117997D01*
X0225482Y0117885D01*
X0225365Y0117777D01*
X0225246Y0117671D01*
X0225124Y0117568D01*
X0224999Y0117469D01*
X0224872Y0117372D01*
X0224743Y0117279D01*
X0224611Y0117188D01*
X0224477Y0117101D01*
X0224342Y0117018D01*
X0224204Y0116937D01*
X0224064Y0116861D01*
X0223922Y0116787D01*
X0223779Y0116717D01*
X0223634Y0116651D01*
X0223487Y0116588D01*
X0223339Y0116529D01*
X0223190Y0116473D01*
X0223039Y0116421D01*
X0222887Y0116373D01*
X0222734Y0116328D01*
X0222579Y0116288D01*
X0222424Y0116251D01*
X0222268Y0116218D01*
X0222111Y0116189D01*
X0221954Y0116163D01*
X0221796Y0116142D01*
X0221637Y0116124D01*
X0221478Y0116111D01*
X0221319Y0116101D01*
X0221160Y0116095D01*
X0221000Y0116093D01*
X0201000Y0116093D01*
X0061000Y0116093D01*
X0061000Y0161093D01*
X0061003Y0161335D01*
X0061012Y0161576D01*
X0061026Y0161817D01*
X0061047Y0162058D01*
X0061073Y0162298D01*
X0061105Y0162538D01*
X0061143Y0162777D01*
X0061186Y0163014D01*
X0061236Y0163251D01*
X0061291Y0163486D01*
X0061351Y0163720D01*
X0061418Y0163952D01*
X0061489Y0164183D01*
X0061567Y0164412D01*
X0061650Y0164639D01*
X0061738Y0164864D01*
X0061832Y0165087D01*
X0061931Y0165307D01*
X0062036Y0165525D01*
X0062145Y0165740D01*
X0062260Y0165953D01*
X0062380Y0166163D01*
X0062505Y0166369D01*
X0062635Y0166573D01*
X0062770Y0166774D01*
X0062910Y0166971D01*
X0063054Y0167165D01*
X0063203Y0167355D01*
X0063357Y0167541D01*
X0063515Y0167724D01*
X0063677Y0167903D01*
X0063844Y0168078D01*
X0064015Y0168249D01*
X0064190Y0168416D01*
X0064369Y0168578D01*
X0064552Y0168736D01*
X0064738Y0168890D01*
X0064928Y0169039D01*
X0065122Y0169183D01*
X0065319Y0169323D01*
X0065520Y0169458D01*
X0065724Y0169588D01*
X0065930Y0169713D01*
X0066140Y0169833D01*
X0066353Y0169948D01*
X0066568Y0170057D01*
X0066786Y0170162D01*
X0067006Y0170261D01*
X0067229Y0170355D01*
X0067454Y0170443D01*
X0067681Y0170526D01*
X0067910Y0170604D01*
X0068141Y0170675D01*
X0068373Y0170742D01*
X0068607Y0170802D01*
X0068842Y0170857D01*
X0069079Y0170907D01*
X0069316Y0170950D01*
X0069555Y0170988D01*
X0069795Y0171020D01*
X0070035Y0171046D01*
X0070276Y0171067D01*
X0070517Y0171081D01*
X0070758Y0171090D01*
X0071000Y0171093D01*
X0071000Y0204833D01*
X0071002Y0205025D01*
X0071009Y0205217D01*
X0071021Y0205409D01*
X0071037Y0205601D01*
X0071058Y0205792D01*
X0071083Y0205982D01*
X0071114Y0206172D01*
X0071148Y0206361D01*
X0071187Y0206549D01*
X0071231Y0206736D01*
X0071279Y0206922D01*
X0071332Y0207107D01*
X0071389Y0207291D01*
X0071451Y0207473D01*
X0071517Y0207653D01*
X0071587Y0207832D01*
X0071662Y0208009D01*
X0071741Y0208184D01*
X0071824Y0208358D01*
X0071911Y0208529D01*
X0072002Y0208698D01*
X0072098Y0208865D01*
X0072197Y0209029D01*
X0072301Y0209191D01*
X0072408Y0209351D01*
X0072519Y0209508D01*
X0072634Y0209662D01*
X0072752Y0209813D01*
X0072874Y0209961D01*
X0073000Y0210107D01*
X0073129Y0210249D01*
X0073262Y0210388D01*
X0073398Y0210524D01*
X0073537Y0210657D01*
X0073679Y0210786D01*
X0073825Y0210912D01*
X0073973Y0211034D01*
X0074124Y0211152D01*
X0074278Y0211267D01*
X0074435Y0211378D01*
X0074595Y0211485D01*
X0074757Y0211589D01*
X0074921Y0211688D01*
X0075088Y0211784D01*
X0075257Y0211875D01*
X0075428Y0211962D01*
X0075602Y0212045D01*
X0075777Y0212124D01*
X0075954Y0212199D01*
X0076133Y0212269D01*
X0076313Y0212335D01*
X0076495Y0212397D01*
X0076679Y0212454D01*
X0076864Y0212507D01*
X0077050Y0212555D01*
X0077237Y0212599D01*
X0077425Y0212638D01*
X0077614Y0212672D01*
X0077804Y0212703D01*
X0077994Y0212728D01*
X0078185Y0212749D01*
X0078377Y0212765D01*
X0078569Y0212777D01*
X0078761Y0212784D01*
X0078953Y0212786D01*
X0078900Y0222793D02*
X0088900Y0222793D01*
X0078900Y0222793D02*
X0078906Y0223266D01*
X0078923Y0223738D01*
X0078951Y0224210D01*
X0078991Y0224681D01*
X0079043Y0225151D01*
X0079105Y0225619D01*
X0079179Y0226086D01*
X0079264Y0226551D01*
X0079361Y0227014D01*
X0079468Y0227474D01*
X0079587Y0227932D01*
X0079717Y0228386D01*
X0079857Y0228837D01*
X0080009Y0229285D01*
X0080171Y0229729D01*
X0080344Y0230169D01*
X0080528Y0230605D01*
X0080722Y0231036D01*
X0080926Y0231462D01*
X0081140Y0231883D01*
X0081365Y0232299D01*
X0081600Y0232709D01*
X0081844Y0233114D01*
X0082099Y0233512D01*
X0082362Y0233904D01*
X0082636Y0234290D01*
X0082918Y0234669D01*
X0083210Y0235041D01*
X0083510Y0235406D01*
X0083819Y0235764D01*
X0084137Y0236114D01*
X0084463Y0236456D01*
X0084797Y0236790D01*
X0085139Y0237116D01*
X0085489Y0237434D01*
X0085847Y0237743D01*
X0086212Y0238043D01*
X0086584Y0238335D01*
X0086963Y0238617D01*
X0087349Y0238891D01*
X0087741Y0239154D01*
X0088139Y0239409D01*
X0088544Y0239653D01*
X0088954Y0239888D01*
X0089370Y0240113D01*
X0089791Y0240327D01*
X0090217Y0240531D01*
X0090648Y0240725D01*
X0091084Y0240909D01*
X0091524Y0241082D01*
X0091968Y0241244D01*
X0092416Y0241396D01*
X0092867Y0241536D01*
X0093321Y0241666D01*
X0093779Y0241785D01*
X0094239Y0241892D01*
X0094702Y0241989D01*
X0095167Y0242074D01*
X0095634Y0242148D01*
X0096102Y0242210D01*
X0096572Y0242262D01*
X0097043Y0242302D01*
X0097515Y0242330D01*
X0097987Y0242347D01*
X0098460Y0242353D01*
X0065600Y0236093D02*
X0051000Y0236093D01*
X0065600Y0236093D02*
X0065921Y0236089D01*
X0066243Y0236077D01*
X0066563Y0236058D01*
X0066884Y0236031D01*
X0067203Y0235996D01*
X0067522Y0235953D01*
X0067839Y0235903D01*
X0068155Y0235845D01*
X0068470Y0235780D01*
X0068783Y0235707D01*
X0069094Y0235626D01*
X0069403Y0235538D01*
X0069710Y0235442D01*
X0070014Y0235339D01*
X0070316Y0235229D01*
X0070615Y0235111D01*
X0070912Y0234986D01*
X0071205Y0234854D01*
X0071494Y0234715D01*
X0071781Y0234570D01*
X0072064Y0234417D01*
X0072343Y0234257D01*
X0072618Y0234091D01*
X0072889Y0233918D01*
X0073155Y0233739D01*
X0073418Y0233553D01*
X0073675Y0233361D01*
X0073928Y0233163D01*
X0074176Y0232958D01*
X0074420Y0232748D01*
X0074658Y0232532D01*
X0074890Y0232310D01*
X0075117Y0232083D01*
X0075339Y0231851D01*
X0075555Y0231613D01*
X0075765Y0231369D01*
X0075970Y0231121D01*
X0076168Y0230868D01*
X0076360Y0230611D01*
X0076546Y0230348D01*
X0076725Y0230082D01*
X0076898Y0229811D01*
X0077064Y0229536D01*
X0077224Y0229257D01*
X0077377Y0228974D01*
X0077522Y0228687D01*
X0077661Y0228398D01*
X0077793Y0228105D01*
X0077918Y0227808D01*
X0078036Y0227509D01*
X0078146Y0227207D01*
X0078249Y0226903D01*
X0078345Y0226596D01*
X0078433Y0226287D01*
X0078514Y0225976D01*
X0078587Y0225663D01*
X0078652Y0225348D01*
X0078710Y0225032D01*
X0078760Y0224715D01*
X0078803Y0224396D01*
X0078838Y0224077D01*
X0078865Y0223756D01*
X0078884Y0223436D01*
X0078896Y0223114D01*
X0078900Y0222793D01*
X0061000Y0116093D02*
X0051000Y0116093D01*
X0246000Y0111093D02*
X0246000Y0041093D01*
X0246002Y0040953D01*
X0246008Y0040813D01*
X0246018Y0040673D01*
X0246031Y0040533D01*
X0246049Y0040394D01*
X0246071Y0040255D01*
X0246096Y0040118D01*
X0246125Y0039980D01*
X0246158Y0039844D01*
X0246195Y0039709D01*
X0246236Y0039575D01*
X0246281Y0039442D01*
X0246329Y0039310D01*
X0246381Y0039180D01*
X0246436Y0039051D01*
X0246495Y0038924D01*
X0246558Y0038798D01*
X0246624Y0038674D01*
X0246693Y0038553D01*
X0246766Y0038433D01*
X0246843Y0038315D01*
X0246922Y0038200D01*
X0247005Y0038086D01*
X0247091Y0037976D01*
X0247180Y0037867D01*
X0247272Y0037761D01*
X0247367Y0037658D01*
X0247464Y0037557D01*
X0247565Y0037460D01*
X0247668Y0037365D01*
X0247774Y0037273D01*
X0247883Y0037184D01*
X0247993Y0037098D01*
X0248107Y0037015D01*
X0248222Y0036936D01*
X0248340Y0036859D01*
X0248460Y0036786D01*
X0248581Y0036717D01*
X0248705Y0036651D01*
X0248831Y0036588D01*
X0248958Y0036529D01*
X0249087Y0036474D01*
X0249217Y0036422D01*
X0249349Y0036374D01*
X0249482Y0036329D01*
X0249616Y0036288D01*
X0249751Y0036251D01*
X0249887Y0036218D01*
X0250025Y0036189D01*
X0250162Y0036164D01*
X0250301Y0036142D01*
X0250440Y0036124D01*
X0250580Y0036111D01*
X0250720Y0036101D01*
X0250860Y0036095D01*
X0251000Y0036093D01*
X0256000Y0036093D01*
X0246000Y0111093D02*
X0246004Y0111455D01*
X0246018Y0111818D01*
X0246039Y0112180D01*
X0246070Y0112541D01*
X0246109Y0112901D01*
X0246157Y0113260D01*
X0246214Y0113618D01*
X0246279Y0113975D01*
X0246353Y0114330D01*
X0246436Y0114683D01*
X0246527Y0115034D01*
X0246626Y0115382D01*
X0246734Y0115728D01*
X0246850Y0116072D01*
X0246975Y0116412D01*
X0247107Y0116749D01*
X0247248Y0117083D01*
X0247397Y0117414D01*
X0247554Y0117741D01*
X0247718Y0118064D01*
X0247890Y0118383D01*
X0248070Y0118697D01*
X0248258Y0119008D01*
X0248453Y0119313D01*
X0248655Y0119614D01*
X0248865Y0119910D01*
X0249081Y0120200D01*
X0249305Y0120486D01*
X0249535Y0120766D01*
X0249772Y0121040D01*
X0250016Y0121308D01*
X0250266Y0121571D01*
X0250522Y0121827D01*
X0250785Y0122077D01*
X0251053Y0122321D01*
X0251327Y0122558D01*
X0251607Y0122788D01*
X0251893Y0123012D01*
X0252183Y0123228D01*
X0252479Y0123438D01*
X0252780Y0123640D01*
X0253085Y0123835D01*
X0253396Y0124023D01*
X0253710Y0124203D01*
X0254029Y0124375D01*
X0254352Y0124539D01*
X0254679Y0124696D01*
X0255010Y0124845D01*
X0255344Y0124986D01*
X0255681Y0125118D01*
X0256021Y0125243D01*
X0256365Y0125359D01*
X0256711Y0125467D01*
X0257059Y0125566D01*
X0257410Y0125657D01*
X0257763Y0125740D01*
X0258118Y0125814D01*
X0258475Y0125879D01*
X0258833Y0125936D01*
X0259192Y0125984D01*
X0259552Y0126023D01*
X0259913Y0126054D01*
X0260275Y0126075D01*
X0260638Y0126089D01*
X0261000Y0126093D01*
D25*
X0271000Y0126093D02*
X0261000Y0136093D01*
X0261000Y0146093D02*
X0272400Y0134693D01*
X0272400Y0081673D01*
X0272400Y0081672D01*
X0272400Y0072493D01*
X0256000Y0056093D01*
X0256000Y0066093D02*
X0271000Y0081093D01*
X0271000Y0126093D01*
X0261000Y0146093D02*
X0261000Y0152093D01*
X0260998Y0152226D01*
X0260992Y0152360D01*
X0260982Y0152493D01*
X0260968Y0152625D01*
X0260951Y0152757D01*
X0260929Y0152889D01*
X0260904Y0153020D01*
X0260874Y0153150D01*
X0260841Y0153279D01*
X0260804Y0153407D01*
X0260763Y0153534D01*
X0260718Y0153660D01*
X0260670Y0153784D01*
X0260618Y0153907D01*
X0260563Y0154028D01*
X0260503Y0154148D01*
X0260441Y0154266D01*
X0260375Y0154381D01*
X0260305Y0154495D01*
X0260232Y0154607D01*
X0260156Y0154716D01*
X0260077Y0154824D01*
X0259994Y0154928D01*
X0259909Y0155031D01*
X0259820Y0155130D01*
X0259729Y0155227D01*
X0259634Y0155322D01*
X0259537Y0155413D01*
X0259438Y0155502D01*
X0259335Y0155587D01*
X0259231Y0155670D01*
X0259123Y0155749D01*
X0259014Y0155825D01*
X0258902Y0155898D01*
X0258788Y0155968D01*
X0258673Y0156034D01*
X0258555Y0156096D01*
X0258435Y0156156D01*
X0258314Y0156211D01*
X0258191Y0156263D01*
X0258067Y0156311D01*
X0257941Y0156356D01*
X0257814Y0156397D01*
X0257686Y0156434D01*
X0257557Y0156467D01*
X0257427Y0156497D01*
X0257296Y0156522D01*
X0257164Y0156544D01*
X0257032Y0156561D01*
X0256900Y0156575D01*
X0256767Y0156585D01*
X0256633Y0156591D01*
X0256500Y0156593D01*
X0087500Y0156593D01*
X0087393Y0156595D01*
X0087286Y0156601D01*
X0087179Y0156610D01*
X0087073Y0156624D01*
X0086967Y0156641D01*
X0086862Y0156662D01*
X0086758Y0156686D01*
X0086655Y0156715D01*
X0086553Y0156747D01*
X0086452Y0156782D01*
X0086352Y0156821D01*
X0086254Y0156864D01*
X0086157Y0156910D01*
X0086062Y0156960D01*
X0085969Y0157013D01*
X0085878Y0157069D01*
X0085789Y0157129D01*
X0085702Y0157191D01*
X0085618Y0157257D01*
X0085535Y0157326D01*
X0085456Y0157397D01*
X0085379Y0157472D01*
X0085304Y0157549D01*
X0085233Y0157628D01*
X0085164Y0157711D01*
X0085098Y0157795D01*
X0085036Y0157882D01*
X0084976Y0157971D01*
X0084920Y0158062D01*
X0084867Y0158155D01*
X0084817Y0158250D01*
X0084771Y0158347D01*
X0084728Y0158445D01*
X0084689Y0158545D01*
X0084654Y0158646D01*
X0084622Y0158748D01*
X0084593Y0158851D01*
X0084569Y0158955D01*
X0084548Y0159060D01*
X0084531Y0159166D01*
X0084517Y0159272D01*
X0084508Y0159379D01*
X0084502Y0159486D01*
X0084500Y0159593D01*
X0084500Y0172093D01*
X0088500Y0171593D01*
X0084500Y0172093D02*
X0084500Y0210893D01*
X0084544Y0211000D01*
X0084593Y0211105D01*
X0084644Y0211209D01*
X0084700Y0211310D01*
X0084758Y0211410D01*
X0084820Y0211508D01*
X0084885Y0211603D01*
X0084954Y0211697D01*
X0085026Y0211787D01*
X0085100Y0211876D01*
X0085178Y0211961D01*
X0085259Y0212045D01*
X0085342Y0212125D01*
X0085428Y0212202D01*
X0085517Y0212276D01*
X0085608Y0212348D01*
X0085702Y0212416D01*
X0085797Y0212481D01*
X0085895Y0212542D01*
X0085995Y0212601D01*
X0086097Y0212655D01*
X0086201Y0212707D01*
X0086306Y0212754D01*
X0086413Y0212798D01*
X0086522Y0212839D01*
X0086632Y0212875D01*
X0086743Y0212908D01*
X0086855Y0212937D01*
X0086968Y0212963D01*
X0087081Y0212984D01*
X0087196Y0213001D01*
X0087311Y0213015D01*
X0087426Y0213025D01*
X0087542Y0213030D01*
X0087657Y0213032D01*
X0087773Y0213030D01*
X0087889Y0213024D01*
X0088004Y0213013D01*
X0088119Y0212999D01*
X0088233Y0212981D01*
X0088347Y0212960D01*
X0088459Y0212934D01*
X0088571Y0212904D01*
X0088682Y0212871D01*
X0088792Y0212834D01*
X0088900Y0212793D01*
X0092900Y0214449D02*
X0088900Y0218449D01*
X0088900Y0222793D01*
X0083000Y0218693D02*
X0083000Y0185593D01*
X0082913Y0185591D01*
X0082826Y0185585D01*
X0082739Y0185576D01*
X0082653Y0185563D01*
X0082567Y0185546D01*
X0082482Y0185525D01*
X0082399Y0185500D01*
X0082316Y0185472D01*
X0082235Y0185441D01*
X0082155Y0185406D01*
X0082077Y0185367D01*
X0082000Y0185325D01*
X0081925Y0185280D01*
X0081853Y0185231D01*
X0081782Y0185180D01*
X0081714Y0185125D01*
X0081649Y0185068D01*
X0081586Y0185007D01*
X0081525Y0184944D01*
X0081468Y0184879D01*
X0081413Y0184811D01*
X0081362Y0184740D01*
X0081313Y0184668D01*
X0081268Y0184593D01*
X0081226Y0184516D01*
X0081187Y0184438D01*
X0081152Y0184358D01*
X0081121Y0184277D01*
X0081093Y0184194D01*
X0081068Y0184111D01*
X0081047Y0184026D01*
X0081030Y0183940D01*
X0081017Y0183854D01*
X0081008Y0183767D01*
X0081002Y0183680D01*
X0081000Y0183593D01*
X0078500Y0181593D01*
X0081000Y0181593D01*
X0088500Y0181593D02*
X0092900Y0185993D01*
X0092900Y0214449D01*
X0094500Y0209393D02*
X0094500Y0170593D01*
X0098500Y0171593D01*
X0094500Y0170593D02*
X0094500Y0160093D01*
X0094502Y0160006D01*
X0094508Y0159919D01*
X0094517Y0159832D01*
X0094530Y0159746D01*
X0094547Y0159660D01*
X0094568Y0159575D01*
X0094593Y0159492D01*
X0094621Y0159409D01*
X0094652Y0159328D01*
X0094687Y0159248D01*
X0094726Y0159170D01*
X0094768Y0159093D01*
X0094813Y0159018D01*
X0094862Y0158946D01*
X0094913Y0158875D01*
X0094968Y0158807D01*
X0095025Y0158742D01*
X0095086Y0158679D01*
X0095149Y0158618D01*
X0095214Y0158561D01*
X0095282Y0158506D01*
X0095353Y0158455D01*
X0095425Y0158406D01*
X0095500Y0158361D01*
X0095577Y0158319D01*
X0095655Y0158280D01*
X0095735Y0158245D01*
X0095816Y0158214D01*
X0095899Y0158186D01*
X0095982Y0158161D01*
X0096067Y0158140D01*
X0096153Y0158123D01*
X0096239Y0158110D01*
X0096326Y0158101D01*
X0096413Y0158095D01*
X0096500Y0158093D01*
X0269500Y0158093D01*
X0268500Y0171593D02*
X0272500Y0175593D01*
X0272500Y0205516D01*
X0268900Y0209116D01*
X0268900Y0212793D01*
X0264900Y0211136D02*
X0264900Y0218793D01*
X0268900Y0222793D01*
X0258900Y0222793D02*
X0254900Y0218793D01*
X0254900Y0211136D01*
X0256000Y0210036D01*
X0256000Y0184093D01*
X0258500Y0181593D01*
X0252500Y0183249D02*
X0252500Y0175593D01*
X0248500Y0171593D01*
X0242500Y0175593D02*
X0238500Y0171593D01*
X0242500Y0175593D02*
X0242500Y0183249D01*
X0238900Y0186849D01*
X0238900Y0212793D01*
X0244900Y0211136D02*
X0244900Y0218793D01*
X0248900Y0222793D01*
X0248900Y0212793D02*
X0248900Y0186849D01*
X0252500Y0183249D01*
X0248500Y0181593D02*
X0246000Y0184093D01*
X0246000Y0210036D01*
X0244900Y0211136D01*
X0232900Y0211136D02*
X0228500Y0206736D01*
X0228500Y0181593D01*
X0222500Y0183249D02*
X0222500Y0175593D01*
X0218500Y0171593D01*
X0224500Y0171093D02*
X0224500Y0169093D01*
X0224500Y0171093D02*
X0225000Y0171593D01*
X0228500Y0171593D01*
X0224500Y0169093D02*
X0224502Y0168933D01*
X0224508Y0168774D01*
X0224518Y0168615D01*
X0224531Y0168456D01*
X0224549Y0168297D01*
X0224570Y0168139D01*
X0224596Y0167982D01*
X0224625Y0167825D01*
X0224658Y0167669D01*
X0224695Y0167514D01*
X0224735Y0167359D01*
X0224780Y0167206D01*
X0224828Y0167054D01*
X0224880Y0166903D01*
X0224936Y0166754D01*
X0224995Y0166606D01*
X0225058Y0166459D01*
X0225124Y0166314D01*
X0225194Y0166171D01*
X0225268Y0166029D01*
X0225344Y0165889D01*
X0225425Y0165751D01*
X0225508Y0165616D01*
X0225595Y0165482D01*
X0225686Y0165350D01*
X0225779Y0165221D01*
X0225876Y0165094D01*
X0225975Y0164969D01*
X0226078Y0164847D01*
X0226184Y0164728D01*
X0226292Y0164611D01*
X0226404Y0164497D01*
X0226518Y0164385D01*
X0226635Y0164277D01*
X0226754Y0164171D01*
X0226876Y0164068D01*
X0227001Y0163969D01*
X0227128Y0163872D01*
X0227257Y0163779D01*
X0227389Y0163688D01*
X0227523Y0163601D01*
X0227658Y0163518D01*
X0227796Y0163437D01*
X0227936Y0163361D01*
X0228078Y0163287D01*
X0228221Y0163217D01*
X0228366Y0163151D01*
X0228513Y0163088D01*
X0228661Y0163029D01*
X0228810Y0162973D01*
X0228961Y0162921D01*
X0229113Y0162873D01*
X0229266Y0162828D01*
X0229421Y0162788D01*
X0229576Y0162751D01*
X0229732Y0162718D01*
X0229889Y0162689D01*
X0230046Y0162663D01*
X0230204Y0162642D01*
X0230363Y0162624D01*
X0230522Y0162611D01*
X0230681Y0162601D01*
X0230840Y0162595D01*
X0231000Y0162593D01*
X0292500Y0162593D01*
X0292617Y0162595D01*
X0292734Y0162601D01*
X0292850Y0162611D01*
X0292967Y0162624D01*
X0293082Y0162642D01*
X0293197Y0162663D01*
X0293311Y0162688D01*
X0293425Y0162717D01*
X0293537Y0162750D01*
X0293648Y0162787D01*
X0293758Y0162827D01*
X0293866Y0162871D01*
X0293973Y0162918D01*
X0294079Y0162969D01*
X0294182Y0163024D01*
X0294284Y0163082D01*
X0294383Y0163143D01*
X0294481Y0163207D01*
X0294576Y0163275D01*
X0294669Y0163346D01*
X0294760Y0163420D01*
X0294848Y0163497D01*
X0294933Y0163577D01*
X0295016Y0163660D01*
X0295096Y0163745D01*
X0295173Y0163833D01*
X0295247Y0163924D01*
X0295318Y0164017D01*
X0295386Y0164112D01*
X0295450Y0164210D01*
X0295511Y0164309D01*
X0295569Y0164411D01*
X0295624Y0164514D01*
X0295675Y0164620D01*
X0295722Y0164727D01*
X0295766Y0164835D01*
X0295806Y0164945D01*
X0295843Y0165056D01*
X0295876Y0165168D01*
X0295905Y0165282D01*
X0295930Y0165396D01*
X0295951Y0165511D01*
X0295969Y0165626D01*
X0295982Y0165743D01*
X0295992Y0165859D01*
X0295998Y0165976D01*
X0296000Y0166093D01*
X0296000Y0181093D01*
X0296002Y0181233D01*
X0296008Y0181373D01*
X0296018Y0181513D01*
X0296031Y0181653D01*
X0296049Y0181792D01*
X0296071Y0181931D01*
X0296096Y0182068D01*
X0296125Y0182206D01*
X0296158Y0182342D01*
X0296195Y0182477D01*
X0296236Y0182611D01*
X0296281Y0182744D01*
X0296329Y0182876D01*
X0296381Y0183006D01*
X0296436Y0183135D01*
X0296495Y0183262D01*
X0296558Y0183388D01*
X0296624Y0183512D01*
X0296693Y0183633D01*
X0296766Y0183753D01*
X0296843Y0183871D01*
X0296922Y0183986D01*
X0297005Y0184100D01*
X0297091Y0184210D01*
X0297180Y0184319D01*
X0297272Y0184425D01*
X0297367Y0184528D01*
X0297464Y0184629D01*
X0297565Y0184726D01*
X0297668Y0184821D01*
X0297774Y0184913D01*
X0297883Y0185002D01*
X0297993Y0185088D01*
X0298107Y0185171D01*
X0298222Y0185250D01*
X0298340Y0185327D01*
X0298460Y0185400D01*
X0298581Y0185469D01*
X0298705Y0185535D01*
X0298831Y0185598D01*
X0298958Y0185657D01*
X0299087Y0185712D01*
X0299217Y0185764D01*
X0299349Y0185812D01*
X0299482Y0185857D01*
X0299616Y0185898D01*
X0299751Y0185935D01*
X0299887Y0185968D01*
X0300025Y0185997D01*
X0300162Y0186022D01*
X0300301Y0186044D01*
X0300440Y0186062D01*
X0300580Y0186075D01*
X0300720Y0186085D01*
X0300860Y0186091D01*
X0301000Y0186093D01*
X0311000Y0186093D01*
X0268500Y0181593D02*
X0268500Y0207536D01*
X0264900Y0211136D01*
X0262500Y0205516D02*
X0258900Y0209116D01*
X0258900Y0212793D01*
X0262500Y0205516D02*
X0262500Y0175593D01*
X0258500Y0171593D01*
X0224500Y0171093D02*
X0224500Y0209393D01*
X0224518Y0209515D01*
X0224539Y0209637D01*
X0224564Y0209758D01*
X0224593Y0209878D01*
X0224626Y0209997D01*
X0224663Y0210115D01*
X0224703Y0210232D01*
X0224747Y0210347D01*
X0224794Y0210461D01*
X0224845Y0210574D01*
X0224900Y0210685D01*
X0224958Y0210794D01*
X0225019Y0210901D01*
X0225084Y0211006D01*
X0225152Y0211109D01*
X0225223Y0211210D01*
X0225298Y0211309D01*
X0225375Y0211405D01*
X0225455Y0211499D01*
X0225539Y0211590D01*
X0225625Y0211678D01*
X0225714Y0211764D01*
X0225805Y0211847D01*
X0225899Y0211927D01*
X0225996Y0212004D01*
X0226095Y0212078D01*
X0226196Y0212149D01*
X0226299Y0212217D01*
X0226405Y0212281D01*
X0226512Y0212342D01*
X0226621Y0212400D01*
X0226732Y0212454D01*
X0226845Y0212504D01*
X0226959Y0212552D01*
X0227075Y0212595D01*
X0227192Y0212635D01*
X0227310Y0212671D01*
X0227429Y0212703D01*
X0227549Y0212732D01*
X0227670Y0212757D01*
X0227792Y0212778D01*
X0227914Y0212795D01*
X0228037Y0212808D01*
X0228160Y0212818D01*
X0228284Y0212823D01*
X0228407Y0212825D01*
X0228531Y0212823D01*
X0228654Y0212817D01*
X0228777Y0212807D01*
X0228900Y0212793D01*
X0232900Y0214449D02*
X0228900Y0218449D01*
X0228900Y0222793D01*
X0232900Y0214449D02*
X0232900Y0211136D01*
X0218900Y0212793D02*
X0218900Y0186849D01*
X0222500Y0183249D01*
X0212500Y0183249D02*
X0212500Y0175593D01*
X0208500Y0171593D01*
X0208500Y0181593D02*
X0206000Y0184093D01*
X0206000Y0210036D01*
X0204900Y0211136D01*
X0204900Y0214449D01*
X0208900Y0218449D01*
X0208900Y0222793D01*
X0198900Y0222793D02*
X0198900Y0218449D01*
X0194900Y0214449D01*
X0194900Y0211136D01*
X0196000Y0210036D01*
X0196000Y0184093D01*
X0198500Y0181593D01*
X0192500Y0175593D02*
X0188500Y0171593D01*
X0192500Y0175593D02*
X0192500Y0205516D01*
X0188900Y0209116D01*
X0188900Y0212793D01*
X0184900Y0214449D02*
X0184900Y0211136D01*
X0188500Y0207536D01*
X0188500Y0181593D01*
X0182500Y0183249D02*
X0182500Y0175593D01*
X0178500Y0171593D01*
X0172500Y0175593D02*
X0168500Y0171593D01*
X0172500Y0175593D02*
X0172500Y0183249D01*
X0168900Y0186849D01*
X0168900Y0212793D01*
X0174900Y0214449D02*
X0174900Y0188869D01*
X0178500Y0185269D01*
X0178500Y0181593D01*
X0182500Y0183249D02*
X0178900Y0186849D01*
X0178900Y0212793D01*
X0174900Y0214449D02*
X0178900Y0218449D01*
X0178900Y0222793D01*
X0188900Y0222793D02*
X0188900Y0218449D01*
X0184900Y0214449D01*
X0208900Y0212793D02*
X0208900Y0186849D01*
X0212500Y0183249D01*
X0162500Y0183249D02*
X0162500Y0175593D01*
X0158500Y0171593D01*
X0152500Y0175593D02*
X0148500Y0171593D01*
X0152500Y0175593D02*
X0152500Y0183249D01*
X0148900Y0186849D01*
X0148900Y0212793D01*
X0146000Y0210036D02*
X0146000Y0184093D01*
X0148500Y0181593D01*
X0142500Y0183249D02*
X0142500Y0175593D01*
X0138500Y0171593D01*
X0132500Y0175593D02*
X0128500Y0171593D01*
X0132500Y0175593D02*
X0132500Y0183249D01*
X0128900Y0186849D01*
X0128900Y0212793D01*
X0126000Y0210036D02*
X0126000Y0184093D01*
X0128500Y0181593D01*
X0118500Y0181593D02*
X0116000Y0184093D01*
X0116000Y0210036D01*
X0114900Y0211136D01*
X0114900Y0214449D01*
X0118900Y0218449D01*
X0118900Y0222793D01*
X0128900Y0222793D02*
X0128900Y0218449D01*
X0124900Y0214449D01*
X0124900Y0211136D01*
X0126000Y0210036D01*
X0112500Y0205516D02*
X0112500Y0175593D01*
X0108500Y0171593D01*
X0108500Y0181593D02*
X0108500Y0207536D01*
X0104900Y0211136D01*
X0104900Y0218793D01*
X0108900Y0222793D01*
X0108900Y0212793D02*
X0108900Y0209116D01*
X0112500Y0205516D01*
X0098900Y0212793D02*
X0098777Y0212807D01*
X0098654Y0212817D01*
X0098531Y0212823D01*
X0098407Y0212825D01*
X0098284Y0212823D01*
X0098160Y0212818D01*
X0098037Y0212808D01*
X0097914Y0212795D01*
X0097792Y0212778D01*
X0097670Y0212757D01*
X0097549Y0212732D01*
X0097429Y0212703D01*
X0097310Y0212671D01*
X0097192Y0212635D01*
X0097075Y0212595D01*
X0096959Y0212552D01*
X0096845Y0212504D01*
X0096732Y0212454D01*
X0096621Y0212400D01*
X0096512Y0212342D01*
X0096405Y0212281D01*
X0096299Y0212217D01*
X0096196Y0212149D01*
X0096095Y0212078D01*
X0095996Y0212004D01*
X0095899Y0211927D01*
X0095805Y0211847D01*
X0095714Y0211764D01*
X0095625Y0211678D01*
X0095539Y0211590D01*
X0095455Y0211499D01*
X0095375Y0211405D01*
X0095298Y0211309D01*
X0095223Y0211210D01*
X0095152Y0211109D01*
X0095084Y0211006D01*
X0095019Y0210901D01*
X0094958Y0210794D01*
X0094900Y0210685D01*
X0094845Y0210574D01*
X0094794Y0210461D01*
X0094747Y0210347D01*
X0094703Y0210232D01*
X0094663Y0210115D01*
X0094626Y0209997D01*
X0094593Y0209878D01*
X0094564Y0209758D01*
X0094539Y0209637D01*
X0094518Y0209515D01*
X0094500Y0209393D01*
X0083000Y0218693D02*
X0082998Y0218819D01*
X0082992Y0218945D01*
X0082983Y0219071D01*
X0082969Y0219197D01*
X0082951Y0219322D01*
X0082930Y0219446D01*
X0082905Y0219570D01*
X0082876Y0219693D01*
X0082843Y0219815D01*
X0082807Y0219936D01*
X0082767Y0220056D01*
X0082723Y0220174D01*
X0082676Y0220291D01*
X0082625Y0220407D01*
X0082570Y0220521D01*
X0082512Y0220633D01*
X0082451Y0220743D01*
X0082386Y0220851D01*
X0082318Y0220958D01*
X0082246Y0221062D01*
X0082172Y0221164D01*
X0082094Y0221263D01*
X0082014Y0221361D01*
X0081930Y0221455D01*
X0081843Y0221547D01*
X0081754Y0221636D01*
X0081662Y0221723D01*
X0081568Y0221807D01*
X0081470Y0221887D01*
X0081371Y0221965D01*
X0081269Y0222039D01*
X0081165Y0222111D01*
X0081058Y0222179D01*
X0080950Y0222244D01*
X0080840Y0222305D01*
X0080728Y0222363D01*
X0080614Y0222418D01*
X0080498Y0222469D01*
X0080381Y0222516D01*
X0080263Y0222560D01*
X0080143Y0222600D01*
X0080022Y0222636D01*
X0079900Y0222669D01*
X0079777Y0222698D01*
X0079653Y0222723D01*
X0079529Y0222744D01*
X0079404Y0222762D01*
X0079278Y0222776D01*
X0079152Y0222785D01*
X0079026Y0222791D01*
X0078900Y0222793D01*
X0106000Y0249833D02*
X0106000Y0261093D01*
X0106000Y0271093D02*
X0106000Y0286093D01*
X0096000Y0296093D01*
X0077260Y0276093D02*
X0063500Y0276093D01*
X0146000Y0271093D02*
X0146000Y0296093D01*
X0146000Y0261093D02*
X0146000Y0249833D01*
X0148900Y0222793D02*
X0148900Y0218449D01*
X0144900Y0214449D01*
X0144900Y0211136D01*
X0146000Y0210036D01*
X0138900Y0212793D02*
X0138900Y0186849D01*
X0142500Y0183249D01*
X0156000Y0184093D02*
X0156000Y0210036D01*
X0154900Y0211136D01*
X0154900Y0218793D01*
X0158900Y0222793D01*
X0158900Y0212793D02*
X0158900Y0186849D01*
X0162500Y0183249D01*
X0158500Y0181593D02*
X0156000Y0184093D01*
X0114500Y0146093D02*
X0107240Y0146093D01*
X0099760Y0146093D02*
X0083500Y0146093D01*
X0078500Y0171593D02*
X0071000Y0171093D01*
X0191000Y0249833D02*
X0191000Y0261093D01*
X0191000Y0271093D02*
X0191000Y0296093D01*
X0241000Y0296093D02*
X0241000Y0271093D01*
X0241000Y0261093D02*
X0241000Y0249833D01*
X0296000Y0259833D02*
X0296000Y0271093D01*
X0306000Y0271093D02*
X0306000Y0259833D01*
X0316000Y0259833D02*
X0316000Y0259833D01*
X0316000Y0259833D01*
X0316000Y0259833D01*
X0316000Y0271093D01*
X0326000Y0271093D02*
X0326000Y0259833D01*
D26*
X0016000Y0256093D03*
X0016000Y0266093D03*
X0016000Y0246093D03*
D27*
X0094740Y0266093D02*
X0276000Y0266093D01*
X0296000Y0271093D02*
X0296000Y0296093D01*
X0306000Y0296093D02*
X0306000Y0271093D01*
X0316000Y0271093D02*
X0316000Y0296093D01*
X0326000Y0296093D02*
X0326000Y0271093D01*
X0346000Y0271093D02*
X0346000Y0281093D01*
X0376000Y0281093D01*
X0376000Y0271093D01*
X0261000Y0046093D02*
X0256000Y0046093D01*
X0094740Y0266093D02*
X0094498Y0266096D01*
X0094257Y0266105D01*
X0094016Y0266119D01*
X0093775Y0266140D01*
X0093535Y0266166D01*
X0093295Y0266198D01*
X0093056Y0266236D01*
X0092819Y0266279D01*
X0092582Y0266329D01*
X0092347Y0266384D01*
X0092113Y0266444D01*
X0091881Y0266511D01*
X0091650Y0266582D01*
X0091421Y0266660D01*
X0091194Y0266743D01*
X0090969Y0266831D01*
X0090746Y0266925D01*
X0090526Y0267024D01*
X0090308Y0267129D01*
X0090093Y0267238D01*
X0089880Y0267353D01*
X0089670Y0267473D01*
X0089464Y0267598D01*
X0089260Y0267728D01*
X0089059Y0267863D01*
X0088862Y0268003D01*
X0088668Y0268147D01*
X0088478Y0268296D01*
X0088292Y0268450D01*
X0088109Y0268608D01*
X0087930Y0268770D01*
X0087755Y0268937D01*
X0087584Y0269108D01*
X0087417Y0269283D01*
X0087255Y0269462D01*
X0087097Y0269645D01*
X0086943Y0269831D01*
X0086794Y0270021D01*
X0086650Y0270215D01*
X0086510Y0270412D01*
X0086375Y0270613D01*
X0086245Y0270817D01*
X0086120Y0271023D01*
X0086000Y0271233D01*
X0085885Y0271446D01*
X0085776Y0271661D01*
X0085671Y0271879D01*
X0085572Y0272099D01*
X0085478Y0272322D01*
X0085390Y0272547D01*
X0085307Y0272774D01*
X0085229Y0273003D01*
X0085158Y0273234D01*
X0085091Y0273466D01*
X0085031Y0273700D01*
X0084976Y0273935D01*
X0084926Y0274172D01*
X0084883Y0274409D01*
X0084845Y0274648D01*
X0084813Y0274888D01*
X0084787Y0275128D01*
X0084766Y0275369D01*
X0084752Y0275610D01*
X0084743Y0275851D01*
X0084740Y0276093D01*
D28*
X0216000Y0274093D03*
D29*
X0276000Y0266093D03*
X0269500Y0158093D03*
X0114500Y0146093D03*
D30*
X0216000Y0285093D02*
X0216000Y0307493D01*
X0344600Y0307493D01*
X0346000Y0306093D01*
X0346000Y0296093D01*
X0356000Y0296093D02*
X0356000Y0306093D01*
X0352800Y0309293D01*
X0156000Y0309293D01*
X0146000Y0299293D01*
X0146000Y0296093D01*
X0111000Y0311093D02*
X0361000Y0311093D01*
X0366000Y0306093D01*
X0366000Y0296093D01*
X0336000Y0296093D02*
X0336000Y0300693D01*
X0331000Y0305693D01*
X0245600Y0305693D01*
X0241000Y0301093D01*
X0216000Y0307493D02*
X0202400Y0307493D01*
X0191000Y0296093D01*
X0111000Y0311093D02*
X0096000Y0296093D01*
D31*
X0216000Y0285093D03*
M02*
