G75*
%MOIN*%
%OFA0B0*%
%FSLAX25Y25*%
%IPPOS*%
%LPD*%
%AMOC8*
5,1,8,0,0,1.08239X$1,22.5*
%
%ADD10C,0.00000*%
%ADD11OC8,0.07000*%
%ADD12C,0.07400*%
%ADD13C,0.06000*%
%ADD14C,0.07600*%
%ADD15OC8,0.06600*%
%ADD16R,0.06000X0.06000*%
%ADD17C,0.06000*%
%ADD18R,0.06299X0.05118*%
%ADD19R,0.05118X0.06299*%
%ADD20OC8,0.05200*%
%ADD21OC8,0.05150*%
%ADD22C,0.05150*%
%ADD23OC8,0.06000*%
%ADD24C,0.00800*%
%ADD25C,0.01000*%
%ADD26C,0.01200*%
%ADD27C,0.02978*%
D10*
X0001000Y0001093D02*
X0001000Y0316053D01*
X0394701Y0316053D01*
X0394701Y0001093D01*
X0001000Y0001093D01*
X0054367Y0024872D02*
X0054369Y0025019D01*
X0054375Y0025165D01*
X0054385Y0025311D01*
X0054399Y0025457D01*
X0054417Y0025603D01*
X0054438Y0025748D01*
X0054464Y0025892D01*
X0054494Y0026036D01*
X0054527Y0026178D01*
X0054564Y0026320D01*
X0054605Y0026461D01*
X0054650Y0026600D01*
X0054699Y0026739D01*
X0054751Y0026876D01*
X0054808Y0027011D01*
X0054867Y0027145D01*
X0054931Y0027277D01*
X0054998Y0027407D01*
X0055068Y0027536D01*
X0055142Y0027663D01*
X0055219Y0027787D01*
X0055300Y0027910D01*
X0055384Y0028030D01*
X0055471Y0028148D01*
X0055561Y0028263D01*
X0055654Y0028376D01*
X0055751Y0028487D01*
X0055850Y0028595D01*
X0055952Y0028700D01*
X0056057Y0028802D01*
X0056165Y0028901D01*
X0056276Y0028998D01*
X0056389Y0029091D01*
X0056504Y0029181D01*
X0056622Y0029268D01*
X0056742Y0029352D01*
X0056865Y0029433D01*
X0056989Y0029510D01*
X0057116Y0029584D01*
X0057245Y0029654D01*
X0057375Y0029721D01*
X0057507Y0029785D01*
X0057641Y0029844D01*
X0057776Y0029901D01*
X0057913Y0029953D01*
X0058052Y0030002D01*
X0058191Y0030047D01*
X0058332Y0030088D01*
X0058474Y0030125D01*
X0058616Y0030158D01*
X0058760Y0030188D01*
X0058904Y0030214D01*
X0059049Y0030235D01*
X0059195Y0030253D01*
X0059341Y0030267D01*
X0059487Y0030277D01*
X0059633Y0030283D01*
X0059780Y0030285D01*
X0059927Y0030283D01*
X0060073Y0030277D01*
X0060219Y0030267D01*
X0060365Y0030253D01*
X0060511Y0030235D01*
X0060656Y0030214D01*
X0060800Y0030188D01*
X0060944Y0030158D01*
X0061086Y0030125D01*
X0061228Y0030088D01*
X0061369Y0030047D01*
X0061508Y0030002D01*
X0061647Y0029953D01*
X0061784Y0029901D01*
X0061919Y0029844D01*
X0062053Y0029785D01*
X0062185Y0029721D01*
X0062315Y0029654D01*
X0062444Y0029584D01*
X0062571Y0029510D01*
X0062695Y0029433D01*
X0062818Y0029352D01*
X0062938Y0029268D01*
X0063056Y0029181D01*
X0063171Y0029091D01*
X0063284Y0028998D01*
X0063395Y0028901D01*
X0063503Y0028802D01*
X0063608Y0028700D01*
X0063710Y0028595D01*
X0063809Y0028487D01*
X0063906Y0028376D01*
X0063999Y0028263D01*
X0064089Y0028148D01*
X0064176Y0028030D01*
X0064260Y0027910D01*
X0064341Y0027787D01*
X0064418Y0027663D01*
X0064492Y0027536D01*
X0064562Y0027407D01*
X0064629Y0027277D01*
X0064693Y0027145D01*
X0064752Y0027011D01*
X0064809Y0026876D01*
X0064861Y0026739D01*
X0064910Y0026600D01*
X0064955Y0026461D01*
X0064996Y0026320D01*
X0065033Y0026178D01*
X0065066Y0026036D01*
X0065096Y0025892D01*
X0065122Y0025748D01*
X0065143Y0025603D01*
X0065161Y0025457D01*
X0065175Y0025311D01*
X0065185Y0025165D01*
X0065191Y0025019D01*
X0065193Y0024872D01*
X0065191Y0024725D01*
X0065185Y0024579D01*
X0065175Y0024433D01*
X0065161Y0024287D01*
X0065143Y0024141D01*
X0065122Y0023996D01*
X0065096Y0023852D01*
X0065066Y0023708D01*
X0065033Y0023566D01*
X0064996Y0023424D01*
X0064955Y0023283D01*
X0064910Y0023144D01*
X0064861Y0023005D01*
X0064809Y0022868D01*
X0064752Y0022733D01*
X0064693Y0022599D01*
X0064629Y0022467D01*
X0064562Y0022337D01*
X0064492Y0022208D01*
X0064418Y0022081D01*
X0064341Y0021957D01*
X0064260Y0021834D01*
X0064176Y0021714D01*
X0064089Y0021596D01*
X0063999Y0021481D01*
X0063906Y0021368D01*
X0063809Y0021257D01*
X0063710Y0021149D01*
X0063608Y0021044D01*
X0063503Y0020942D01*
X0063395Y0020843D01*
X0063284Y0020746D01*
X0063171Y0020653D01*
X0063056Y0020563D01*
X0062938Y0020476D01*
X0062818Y0020392D01*
X0062695Y0020311D01*
X0062571Y0020234D01*
X0062444Y0020160D01*
X0062315Y0020090D01*
X0062185Y0020023D01*
X0062053Y0019959D01*
X0061919Y0019900D01*
X0061784Y0019843D01*
X0061647Y0019791D01*
X0061508Y0019742D01*
X0061369Y0019697D01*
X0061228Y0019656D01*
X0061086Y0019619D01*
X0060944Y0019586D01*
X0060800Y0019556D01*
X0060656Y0019530D01*
X0060511Y0019509D01*
X0060365Y0019491D01*
X0060219Y0019477D01*
X0060073Y0019467D01*
X0059927Y0019461D01*
X0059780Y0019459D01*
X0059633Y0019461D01*
X0059487Y0019467D01*
X0059341Y0019477D01*
X0059195Y0019491D01*
X0059049Y0019509D01*
X0058904Y0019530D01*
X0058760Y0019556D01*
X0058616Y0019586D01*
X0058474Y0019619D01*
X0058332Y0019656D01*
X0058191Y0019697D01*
X0058052Y0019742D01*
X0057913Y0019791D01*
X0057776Y0019843D01*
X0057641Y0019900D01*
X0057507Y0019959D01*
X0057375Y0020023D01*
X0057245Y0020090D01*
X0057116Y0020160D01*
X0056989Y0020234D01*
X0056865Y0020311D01*
X0056742Y0020392D01*
X0056622Y0020476D01*
X0056504Y0020563D01*
X0056389Y0020653D01*
X0056276Y0020746D01*
X0056165Y0020843D01*
X0056057Y0020942D01*
X0055952Y0021044D01*
X0055850Y0021149D01*
X0055751Y0021257D01*
X0055654Y0021368D01*
X0055561Y0021481D01*
X0055471Y0021596D01*
X0055384Y0021714D01*
X0055300Y0021834D01*
X0055219Y0021957D01*
X0055142Y0022081D01*
X0055068Y0022208D01*
X0054998Y0022337D01*
X0054931Y0022467D01*
X0054867Y0022599D01*
X0054808Y0022733D01*
X0054751Y0022868D01*
X0054699Y0023005D01*
X0054650Y0023144D01*
X0054605Y0023283D01*
X0054564Y0023424D01*
X0054527Y0023566D01*
X0054494Y0023708D01*
X0054464Y0023852D01*
X0054438Y0023996D01*
X0054417Y0024141D01*
X0054399Y0024287D01*
X0054385Y0024433D01*
X0054375Y0024579D01*
X0054369Y0024725D01*
X0054367Y0024872D01*
X0282713Y0024872D02*
X0282715Y0025019D01*
X0282721Y0025165D01*
X0282731Y0025311D01*
X0282745Y0025457D01*
X0282763Y0025603D01*
X0282784Y0025748D01*
X0282810Y0025892D01*
X0282840Y0026036D01*
X0282873Y0026178D01*
X0282910Y0026320D01*
X0282951Y0026461D01*
X0282996Y0026600D01*
X0283045Y0026739D01*
X0283097Y0026876D01*
X0283154Y0027011D01*
X0283213Y0027145D01*
X0283277Y0027277D01*
X0283344Y0027407D01*
X0283414Y0027536D01*
X0283488Y0027663D01*
X0283565Y0027787D01*
X0283646Y0027910D01*
X0283730Y0028030D01*
X0283817Y0028148D01*
X0283907Y0028263D01*
X0284000Y0028376D01*
X0284097Y0028487D01*
X0284196Y0028595D01*
X0284298Y0028700D01*
X0284403Y0028802D01*
X0284511Y0028901D01*
X0284622Y0028998D01*
X0284735Y0029091D01*
X0284850Y0029181D01*
X0284968Y0029268D01*
X0285088Y0029352D01*
X0285211Y0029433D01*
X0285335Y0029510D01*
X0285462Y0029584D01*
X0285591Y0029654D01*
X0285721Y0029721D01*
X0285853Y0029785D01*
X0285987Y0029844D01*
X0286122Y0029901D01*
X0286259Y0029953D01*
X0286398Y0030002D01*
X0286537Y0030047D01*
X0286678Y0030088D01*
X0286820Y0030125D01*
X0286962Y0030158D01*
X0287106Y0030188D01*
X0287250Y0030214D01*
X0287395Y0030235D01*
X0287541Y0030253D01*
X0287687Y0030267D01*
X0287833Y0030277D01*
X0287979Y0030283D01*
X0288126Y0030285D01*
X0288273Y0030283D01*
X0288419Y0030277D01*
X0288565Y0030267D01*
X0288711Y0030253D01*
X0288857Y0030235D01*
X0289002Y0030214D01*
X0289146Y0030188D01*
X0289290Y0030158D01*
X0289432Y0030125D01*
X0289574Y0030088D01*
X0289715Y0030047D01*
X0289854Y0030002D01*
X0289993Y0029953D01*
X0290130Y0029901D01*
X0290265Y0029844D01*
X0290399Y0029785D01*
X0290531Y0029721D01*
X0290661Y0029654D01*
X0290790Y0029584D01*
X0290917Y0029510D01*
X0291041Y0029433D01*
X0291164Y0029352D01*
X0291284Y0029268D01*
X0291402Y0029181D01*
X0291517Y0029091D01*
X0291630Y0028998D01*
X0291741Y0028901D01*
X0291849Y0028802D01*
X0291954Y0028700D01*
X0292056Y0028595D01*
X0292155Y0028487D01*
X0292252Y0028376D01*
X0292345Y0028263D01*
X0292435Y0028148D01*
X0292522Y0028030D01*
X0292606Y0027910D01*
X0292687Y0027787D01*
X0292764Y0027663D01*
X0292838Y0027536D01*
X0292908Y0027407D01*
X0292975Y0027277D01*
X0293039Y0027145D01*
X0293098Y0027011D01*
X0293155Y0026876D01*
X0293207Y0026739D01*
X0293256Y0026600D01*
X0293301Y0026461D01*
X0293342Y0026320D01*
X0293379Y0026178D01*
X0293412Y0026036D01*
X0293442Y0025892D01*
X0293468Y0025748D01*
X0293489Y0025603D01*
X0293507Y0025457D01*
X0293521Y0025311D01*
X0293531Y0025165D01*
X0293537Y0025019D01*
X0293539Y0024872D01*
X0293537Y0024725D01*
X0293531Y0024579D01*
X0293521Y0024433D01*
X0293507Y0024287D01*
X0293489Y0024141D01*
X0293468Y0023996D01*
X0293442Y0023852D01*
X0293412Y0023708D01*
X0293379Y0023566D01*
X0293342Y0023424D01*
X0293301Y0023283D01*
X0293256Y0023144D01*
X0293207Y0023005D01*
X0293155Y0022868D01*
X0293098Y0022733D01*
X0293039Y0022599D01*
X0292975Y0022467D01*
X0292908Y0022337D01*
X0292838Y0022208D01*
X0292764Y0022081D01*
X0292687Y0021957D01*
X0292606Y0021834D01*
X0292522Y0021714D01*
X0292435Y0021596D01*
X0292345Y0021481D01*
X0292252Y0021368D01*
X0292155Y0021257D01*
X0292056Y0021149D01*
X0291954Y0021044D01*
X0291849Y0020942D01*
X0291741Y0020843D01*
X0291630Y0020746D01*
X0291517Y0020653D01*
X0291402Y0020563D01*
X0291284Y0020476D01*
X0291164Y0020392D01*
X0291041Y0020311D01*
X0290917Y0020234D01*
X0290790Y0020160D01*
X0290661Y0020090D01*
X0290531Y0020023D01*
X0290399Y0019959D01*
X0290265Y0019900D01*
X0290130Y0019843D01*
X0289993Y0019791D01*
X0289854Y0019742D01*
X0289715Y0019697D01*
X0289574Y0019656D01*
X0289432Y0019619D01*
X0289290Y0019586D01*
X0289146Y0019556D01*
X0289002Y0019530D01*
X0288857Y0019509D01*
X0288711Y0019491D01*
X0288565Y0019477D01*
X0288419Y0019467D01*
X0288273Y0019461D01*
X0288126Y0019459D01*
X0287979Y0019461D01*
X0287833Y0019467D01*
X0287687Y0019477D01*
X0287541Y0019491D01*
X0287395Y0019509D01*
X0287250Y0019530D01*
X0287106Y0019556D01*
X0286962Y0019586D01*
X0286820Y0019619D01*
X0286678Y0019656D01*
X0286537Y0019697D01*
X0286398Y0019742D01*
X0286259Y0019791D01*
X0286122Y0019843D01*
X0285987Y0019900D01*
X0285853Y0019959D01*
X0285721Y0020023D01*
X0285591Y0020090D01*
X0285462Y0020160D01*
X0285335Y0020234D01*
X0285211Y0020311D01*
X0285088Y0020392D01*
X0284968Y0020476D01*
X0284850Y0020563D01*
X0284735Y0020653D01*
X0284622Y0020746D01*
X0284511Y0020843D01*
X0284403Y0020942D01*
X0284298Y0021044D01*
X0284196Y0021149D01*
X0284097Y0021257D01*
X0284000Y0021368D01*
X0283907Y0021481D01*
X0283817Y0021596D01*
X0283730Y0021714D01*
X0283646Y0021834D01*
X0283565Y0021957D01*
X0283488Y0022081D01*
X0283414Y0022208D01*
X0283344Y0022337D01*
X0283277Y0022467D01*
X0283213Y0022599D01*
X0283154Y0022733D01*
X0283097Y0022868D01*
X0283045Y0023005D01*
X0282996Y0023144D01*
X0282951Y0023283D01*
X0282910Y0023424D01*
X0282873Y0023566D01*
X0282840Y0023708D01*
X0282810Y0023852D01*
X0282784Y0023996D01*
X0282763Y0024141D01*
X0282745Y0024287D01*
X0282731Y0024433D01*
X0282721Y0024579D01*
X0282715Y0024725D01*
X0282713Y0024872D01*
X0282713Y0217785D02*
X0282715Y0217932D01*
X0282721Y0218078D01*
X0282731Y0218224D01*
X0282745Y0218370D01*
X0282763Y0218516D01*
X0282784Y0218661D01*
X0282810Y0218805D01*
X0282840Y0218949D01*
X0282873Y0219091D01*
X0282910Y0219233D01*
X0282951Y0219374D01*
X0282996Y0219513D01*
X0283045Y0219652D01*
X0283097Y0219789D01*
X0283154Y0219924D01*
X0283213Y0220058D01*
X0283277Y0220190D01*
X0283344Y0220320D01*
X0283414Y0220449D01*
X0283488Y0220576D01*
X0283565Y0220700D01*
X0283646Y0220823D01*
X0283730Y0220943D01*
X0283817Y0221061D01*
X0283907Y0221176D01*
X0284000Y0221289D01*
X0284097Y0221400D01*
X0284196Y0221508D01*
X0284298Y0221613D01*
X0284403Y0221715D01*
X0284511Y0221814D01*
X0284622Y0221911D01*
X0284735Y0222004D01*
X0284850Y0222094D01*
X0284968Y0222181D01*
X0285088Y0222265D01*
X0285211Y0222346D01*
X0285335Y0222423D01*
X0285462Y0222497D01*
X0285591Y0222567D01*
X0285721Y0222634D01*
X0285853Y0222698D01*
X0285987Y0222757D01*
X0286122Y0222814D01*
X0286259Y0222866D01*
X0286398Y0222915D01*
X0286537Y0222960D01*
X0286678Y0223001D01*
X0286820Y0223038D01*
X0286962Y0223071D01*
X0287106Y0223101D01*
X0287250Y0223127D01*
X0287395Y0223148D01*
X0287541Y0223166D01*
X0287687Y0223180D01*
X0287833Y0223190D01*
X0287979Y0223196D01*
X0288126Y0223198D01*
X0288273Y0223196D01*
X0288419Y0223190D01*
X0288565Y0223180D01*
X0288711Y0223166D01*
X0288857Y0223148D01*
X0289002Y0223127D01*
X0289146Y0223101D01*
X0289290Y0223071D01*
X0289432Y0223038D01*
X0289574Y0223001D01*
X0289715Y0222960D01*
X0289854Y0222915D01*
X0289993Y0222866D01*
X0290130Y0222814D01*
X0290265Y0222757D01*
X0290399Y0222698D01*
X0290531Y0222634D01*
X0290661Y0222567D01*
X0290790Y0222497D01*
X0290917Y0222423D01*
X0291041Y0222346D01*
X0291164Y0222265D01*
X0291284Y0222181D01*
X0291402Y0222094D01*
X0291517Y0222004D01*
X0291630Y0221911D01*
X0291741Y0221814D01*
X0291849Y0221715D01*
X0291954Y0221613D01*
X0292056Y0221508D01*
X0292155Y0221400D01*
X0292252Y0221289D01*
X0292345Y0221176D01*
X0292435Y0221061D01*
X0292522Y0220943D01*
X0292606Y0220823D01*
X0292687Y0220700D01*
X0292764Y0220576D01*
X0292838Y0220449D01*
X0292908Y0220320D01*
X0292975Y0220190D01*
X0293039Y0220058D01*
X0293098Y0219924D01*
X0293155Y0219789D01*
X0293207Y0219652D01*
X0293256Y0219513D01*
X0293301Y0219374D01*
X0293342Y0219233D01*
X0293379Y0219091D01*
X0293412Y0218949D01*
X0293442Y0218805D01*
X0293468Y0218661D01*
X0293489Y0218516D01*
X0293507Y0218370D01*
X0293521Y0218224D01*
X0293531Y0218078D01*
X0293537Y0217932D01*
X0293539Y0217785D01*
X0293537Y0217638D01*
X0293531Y0217492D01*
X0293521Y0217346D01*
X0293507Y0217200D01*
X0293489Y0217054D01*
X0293468Y0216909D01*
X0293442Y0216765D01*
X0293412Y0216621D01*
X0293379Y0216479D01*
X0293342Y0216337D01*
X0293301Y0216196D01*
X0293256Y0216057D01*
X0293207Y0215918D01*
X0293155Y0215781D01*
X0293098Y0215646D01*
X0293039Y0215512D01*
X0292975Y0215380D01*
X0292908Y0215250D01*
X0292838Y0215121D01*
X0292764Y0214994D01*
X0292687Y0214870D01*
X0292606Y0214747D01*
X0292522Y0214627D01*
X0292435Y0214509D01*
X0292345Y0214394D01*
X0292252Y0214281D01*
X0292155Y0214170D01*
X0292056Y0214062D01*
X0291954Y0213957D01*
X0291849Y0213855D01*
X0291741Y0213756D01*
X0291630Y0213659D01*
X0291517Y0213566D01*
X0291402Y0213476D01*
X0291284Y0213389D01*
X0291164Y0213305D01*
X0291041Y0213224D01*
X0290917Y0213147D01*
X0290790Y0213073D01*
X0290661Y0213003D01*
X0290531Y0212936D01*
X0290399Y0212872D01*
X0290265Y0212813D01*
X0290130Y0212756D01*
X0289993Y0212704D01*
X0289854Y0212655D01*
X0289715Y0212610D01*
X0289574Y0212569D01*
X0289432Y0212532D01*
X0289290Y0212499D01*
X0289146Y0212469D01*
X0289002Y0212443D01*
X0288857Y0212422D01*
X0288711Y0212404D01*
X0288565Y0212390D01*
X0288419Y0212380D01*
X0288273Y0212374D01*
X0288126Y0212372D01*
X0287979Y0212374D01*
X0287833Y0212380D01*
X0287687Y0212390D01*
X0287541Y0212404D01*
X0287395Y0212422D01*
X0287250Y0212443D01*
X0287106Y0212469D01*
X0286962Y0212499D01*
X0286820Y0212532D01*
X0286678Y0212569D01*
X0286537Y0212610D01*
X0286398Y0212655D01*
X0286259Y0212704D01*
X0286122Y0212756D01*
X0285987Y0212813D01*
X0285853Y0212872D01*
X0285721Y0212936D01*
X0285591Y0213003D01*
X0285462Y0213073D01*
X0285335Y0213147D01*
X0285211Y0213224D01*
X0285088Y0213305D01*
X0284968Y0213389D01*
X0284850Y0213476D01*
X0284735Y0213566D01*
X0284622Y0213659D01*
X0284511Y0213756D01*
X0284403Y0213855D01*
X0284298Y0213957D01*
X0284196Y0214062D01*
X0284097Y0214170D01*
X0284000Y0214281D01*
X0283907Y0214394D01*
X0283817Y0214509D01*
X0283730Y0214627D01*
X0283646Y0214747D01*
X0283565Y0214870D01*
X0283488Y0214994D01*
X0283414Y0215121D01*
X0283344Y0215250D01*
X0283277Y0215380D01*
X0283213Y0215512D01*
X0283154Y0215646D01*
X0283097Y0215781D01*
X0283045Y0215918D01*
X0282996Y0216057D01*
X0282951Y0216196D01*
X0282910Y0216337D01*
X0282873Y0216479D01*
X0282840Y0216621D01*
X0282810Y0216765D01*
X0282784Y0216909D01*
X0282763Y0217054D01*
X0282745Y0217200D01*
X0282731Y0217346D01*
X0282721Y0217492D01*
X0282715Y0217638D01*
X0282713Y0217785D01*
X0054367Y0217785D02*
X0054369Y0217932D01*
X0054375Y0218078D01*
X0054385Y0218224D01*
X0054399Y0218370D01*
X0054417Y0218516D01*
X0054438Y0218661D01*
X0054464Y0218805D01*
X0054494Y0218949D01*
X0054527Y0219091D01*
X0054564Y0219233D01*
X0054605Y0219374D01*
X0054650Y0219513D01*
X0054699Y0219652D01*
X0054751Y0219789D01*
X0054808Y0219924D01*
X0054867Y0220058D01*
X0054931Y0220190D01*
X0054998Y0220320D01*
X0055068Y0220449D01*
X0055142Y0220576D01*
X0055219Y0220700D01*
X0055300Y0220823D01*
X0055384Y0220943D01*
X0055471Y0221061D01*
X0055561Y0221176D01*
X0055654Y0221289D01*
X0055751Y0221400D01*
X0055850Y0221508D01*
X0055952Y0221613D01*
X0056057Y0221715D01*
X0056165Y0221814D01*
X0056276Y0221911D01*
X0056389Y0222004D01*
X0056504Y0222094D01*
X0056622Y0222181D01*
X0056742Y0222265D01*
X0056865Y0222346D01*
X0056989Y0222423D01*
X0057116Y0222497D01*
X0057245Y0222567D01*
X0057375Y0222634D01*
X0057507Y0222698D01*
X0057641Y0222757D01*
X0057776Y0222814D01*
X0057913Y0222866D01*
X0058052Y0222915D01*
X0058191Y0222960D01*
X0058332Y0223001D01*
X0058474Y0223038D01*
X0058616Y0223071D01*
X0058760Y0223101D01*
X0058904Y0223127D01*
X0059049Y0223148D01*
X0059195Y0223166D01*
X0059341Y0223180D01*
X0059487Y0223190D01*
X0059633Y0223196D01*
X0059780Y0223198D01*
X0059927Y0223196D01*
X0060073Y0223190D01*
X0060219Y0223180D01*
X0060365Y0223166D01*
X0060511Y0223148D01*
X0060656Y0223127D01*
X0060800Y0223101D01*
X0060944Y0223071D01*
X0061086Y0223038D01*
X0061228Y0223001D01*
X0061369Y0222960D01*
X0061508Y0222915D01*
X0061647Y0222866D01*
X0061784Y0222814D01*
X0061919Y0222757D01*
X0062053Y0222698D01*
X0062185Y0222634D01*
X0062315Y0222567D01*
X0062444Y0222497D01*
X0062571Y0222423D01*
X0062695Y0222346D01*
X0062818Y0222265D01*
X0062938Y0222181D01*
X0063056Y0222094D01*
X0063171Y0222004D01*
X0063284Y0221911D01*
X0063395Y0221814D01*
X0063503Y0221715D01*
X0063608Y0221613D01*
X0063710Y0221508D01*
X0063809Y0221400D01*
X0063906Y0221289D01*
X0063999Y0221176D01*
X0064089Y0221061D01*
X0064176Y0220943D01*
X0064260Y0220823D01*
X0064341Y0220700D01*
X0064418Y0220576D01*
X0064492Y0220449D01*
X0064562Y0220320D01*
X0064629Y0220190D01*
X0064693Y0220058D01*
X0064752Y0219924D01*
X0064809Y0219789D01*
X0064861Y0219652D01*
X0064910Y0219513D01*
X0064955Y0219374D01*
X0064996Y0219233D01*
X0065033Y0219091D01*
X0065066Y0218949D01*
X0065096Y0218805D01*
X0065122Y0218661D01*
X0065143Y0218516D01*
X0065161Y0218370D01*
X0065175Y0218224D01*
X0065185Y0218078D01*
X0065191Y0217932D01*
X0065193Y0217785D01*
X0065191Y0217638D01*
X0065185Y0217492D01*
X0065175Y0217346D01*
X0065161Y0217200D01*
X0065143Y0217054D01*
X0065122Y0216909D01*
X0065096Y0216765D01*
X0065066Y0216621D01*
X0065033Y0216479D01*
X0064996Y0216337D01*
X0064955Y0216196D01*
X0064910Y0216057D01*
X0064861Y0215918D01*
X0064809Y0215781D01*
X0064752Y0215646D01*
X0064693Y0215512D01*
X0064629Y0215380D01*
X0064562Y0215250D01*
X0064492Y0215121D01*
X0064418Y0214994D01*
X0064341Y0214870D01*
X0064260Y0214747D01*
X0064176Y0214627D01*
X0064089Y0214509D01*
X0063999Y0214394D01*
X0063906Y0214281D01*
X0063809Y0214170D01*
X0063710Y0214062D01*
X0063608Y0213957D01*
X0063503Y0213855D01*
X0063395Y0213756D01*
X0063284Y0213659D01*
X0063171Y0213566D01*
X0063056Y0213476D01*
X0062938Y0213389D01*
X0062818Y0213305D01*
X0062695Y0213224D01*
X0062571Y0213147D01*
X0062444Y0213073D01*
X0062315Y0213003D01*
X0062185Y0212936D01*
X0062053Y0212872D01*
X0061919Y0212813D01*
X0061784Y0212756D01*
X0061647Y0212704D01*
X0061508Y0212655D01*
X0061369Y0212610D01*
X0061228Y0212569D01*
X0061086Y0212532D01*
X0060944Y0212499D01*
X0060800Y0212469D01*
X0060656Y0212443D01*
X0060511Y0212422D01*
X0060365Y0212404D01*
X0060219Y0212390D01*
X0060073Y0212380D01*
X0059927Y0212374D01*
X0059780Y0212372D01*
X0059633Y0212374D01*
X0059487Y0212380D01*
X0059341Y0212390D01*
X0059195Y0212404D01*
X0059049Y0212422D01*
X0058904Y0212443D01*
X0058760Y0212469D01*
X0058616Y0212499D01*
X0058474Y0212532D01*
X0058332Y0212569D01*
X0058191Y0212610D01*
X0058052Y0212655D01*
X0057913Y0212704D01*
X0057776Y0212756D01*
X0057641Y0212813D01*
X0057507Y0212872D01*
X0057375Y0212936D01*
X0057245Y0213003D01*
X0057116Y0213073D01*
X0056989Y0213147D01*
X0056865Y0213224D01*
X0056742Y0213305D01*
X0056622Y0213389D01*
X0056504Y0213476D01*
X0056389Y0213566D01*
X0056276Y0213659D01*
X0056165Y0213756D01*
X0056057Y0213855D01*
X0055952Y0213957D01*
X0055850Y0214062D01*
X0055751Y0214170D01*
X0055654Y0214281D01*
X0055561Y0214394D01*
X0055471Y0214509D01*
X0055384Y0214627D01*
X0055300Y0214747D01*
X0055219Y0214870D01*
X0055142Y0214994D01*
X0055068Y0215121D01*
X0054998Y0215250D01*
X0054931Y0215380D01*
X0054867Y0215512D01*
X0054808Y0215646D01*
X0054751Y0215781D01*
X0054699Y0215918D01*
X0054650Y0216057D01*
X0054605Y0216196D01*
X0054564Y0216337D01*
X0054527Y0216479D01*
X0054494Y0216621D01*
X0054464Y0216765D01*
X0054438Y0216909D01*
X0054417Y0217054D01*
X0054399Y0217200D01*
X0054385Y0217346D01*
X0054375Y0217492D01*
X0054369Y0217638D01*
X0054367Y0217785D01*
D11*
X0296000Y0271093D03*
X0306000Y0271093D03*
X0316000Y0271093D03*
X0326000Y0271093D03*
X0336000Y0271093D03*
X0346000Y0271093D03*
X0356000Y0271093D03*
X0366000Y0271093D03*
X0376000Y0271093D03*
X0386000Y0271093D03*
D12*
X0301000Y0146093D03*
X0301000Y0136093D03*
X0301000Y0126093D03*
X0301000Y0116093D03*
X0301000Y0106093D03*
X0301000Y0096093D03*
X0261000Y0096093D03*
X0261000Y0106093D03*
X0261000Y0116093D03*
X0261000Y0126093D03*
X0261000Y0136093D03*
X0261000Y0146093D03*
D13*
X0259000Y0076093D02*
X0253000Y0076093D01*
X0253000Y0066093D02*
X0259000Y0066093D01*
X0259000Y0056093D02*
X0253000Y0056093D01*
X0253000Y0046093D02*
X0259000Y0046093D01*
X0259000Y0036093D02*
X0253000Y0036093D01*
X0253000Y0026093D02*
X0259000Y0026093D01*
X0019000Y0176093D02*
X0013000Y0176093D01*
X0013000Y0186093D02*
X0019000Y0186093D01*
X0019000Y0196093D02*
X0013000Y0196093D01*
X0013000Y0206093D02*
X0019000Y0206093D01*
X0019000Y0216093D02*
X0013000Y0216093D01*
X0013000Y0226093D02*
X0019000Y0226093D01*
X0019000Y0261093D02*
X0013000Y0261093D01*
X0013000Y0271093D02*
X0019000Y0271093D01*
X0086000Y0293093D02*
X0086000Y0299093D01*
X0096000Y0299093D02*
X0096000Y0293093D01*
X0106000Y0293093D02*
X0106000Y0299093D01*
X0136000Y0299093D02*
X0136000Y0293093D01*
X0146000Y0293093D02*
X0146000Y0299093D01*
X0156000Y0299093D02*
X0156000Y0293093D01*
X0181000Y0293093D02*
X0181000Y0299093D01*
X0191000Y0299093D02*
X0191000Y0293093D01*
X0201000Y0293093D02*
X0201000Y0299093D01*
X0231000Y0299093D02*
X0231000Y0293093D01*
X0241000Y0293093D02*
X0241000Y0299093D01*
X0251000Y0299093D02*
X0251000Y0293093D01*
X0296000Y0293093D02*
X0296000Y0299093D01*
X0306000Y0299093D02*
X0306000Y0293093D01*
X0316000Y0293093D02*
X0316000Y0299093D01*
X0326000Y0299093D02*
X0326000Y0293093D01*
X0336000Y0293093D02*
X0336000Y0299093D01*
X0346000Y0299093D02*
X0346000Y0293093D01*
X0356000Y0293093D02*
X0356000Y0299093D01*
X0366000Y0299093D02*
X0366000Y0293093D01*
X0376000Y0293093D02*
X0376000Y0299093D01*
X0386000Y0299093D02*
X0386000Y0293093D01*
D14*
X0036000Y0286093D03*
X0036000Y0246093D03*
D15*
X0106000Y0266093D03*
X0106000Y0276093D03*
X0146000Y0276093D03*
X0146000Y0266093D03*
X0191000Y0266093D03*
X0191000Y0276093D03*
X0241000Y0271093D03*
X0241000Y0261093D03*
D16*
X0078953Y0212785D03*
D17*
X0088900Y0212793D03*
X0098900Y0212793D03*
X0098900Y0222793D03*
X0088900Y0222793D03*
X0078900Y0222793D03*
X0108900Y0222793D03*
X0118900Y0222793D03*
X0128900Y0222793D03*
X0138900Y0222793D03*
X0148900Y0222793D03*
X0158900Y0222793D03*
X0168900Y0222793D03*
X0178900Y0222793D03*
X0188900Y0222793D03*
X0198900Y0222793D03*
X0208900Y0222793D03*
X0218900Y0222793D03*
X0228900Y0222793D03*
X0238900Y0222793D03*
X0248900Y0222793D03*
X0258900Y0222793D03*
X0268900Y0222793D03*
X0268900Y0212793D03*
X0258900Y0212793D03*
X0248900Y0212793D03*
X0238900Y0212793D03*
X0228900Y0212793D03*
X0218900Y0212793D03*
X0208900Y0212793D03*
X0198900Y0212793D03*
X0188900Y0212793D03*
X0178900Y0212793D03*
X0168900Y0212793D03*
X0158900Y0212793D03*
X0148900Y0212793D03*
X0138900Y0212793D03*
X0128900Y0212793D03*
X0118900Y0212793D03*
X0108900Y0212793D03*
D18*
X0106000Y0242352D03*
X0106000Y0249833D03*
X0146000Y0249833D03*
X0146000Y0242352D03*
X0191000Y0242352D03*
X0191000Y0249833D03*
X0241000Y0249833D03*
X0241000Y0242352D03*
X0296000Y0247352D03*
X0296000Y0254833D03*
X0306000Y0254833D03*
X0306000Y0247352D03*
X0316000Y0247352D03*
X0316000Y0254833D03*
X0326000Y0254833D03*
X0326000Y0247352D03*
D19*
X0084740Y0276093D03*
X0077260Y0276093D03*
D20*
X0063500Y0276093D03*
X0056000Y0281093D03*
X0056000Y0271093D03*
D21*
X0311000Y0176093D03*
D22*
X0311000Y0186093D03*
X0311000Y0196093D03*
X0311000Y0206093D03*
D23*
X0271000Y0186093D03*
X0261000Y0186093D03*
X0251000Y0186093D03*
X0241000Y0186093D03*
X0231000Y0186093D03*
X0221000Y0186093D03*
X0211000Y0186093D03*
X0201000Y0186093D03*
X0191000Y0186093D03*
X0181000Y0186093D03*
X0171000Y0186093D03*
X0161000Y0186093D03*
X0151000Y0186093D03*
X0141000Y0186093D03*
X0131000Y0186093D03*
X0121000Y0186093D03*
X0111000Y0186093D03*
X0101000Y0186093D03*
X0091000Y0186093D03*
X0081000Y0186093D03*
X0081000Y0176093D03*
X0091000Y0176093D03*
X0101000Y0176093D03*
X0111000Y0176093D03*
X0121000Y0176093D03*
X0131000Y0176093D03*
X0141000Y0176093D03*
X0151000Y0176093D03*
X0161000Y0176093D03*
X0171000Y0176093D03*
X0181000Y0176093D03*
X0191000Y0176093D03*
X0201000Y0176093D03*
X0211000Y0176093D03*
X0221000Y0176093D03*
X0231000Y0176093D03*
X0241000Y0176093D03*
X0251000Y0176093D03*
X0261000Y0176093D03*
X0271000Y0176093D03*
X0206000Y0141093D03*
X0196000Y0141093D03*
X0186000Y0141093D03*
X0176000Y0141093D03*
X0166000Y0141093D03*
X0156000Y0141093D03*
X0146000Y0141093D03*
X0136000Y0141093D03*
X0126000Y0141093D03*
X0116000Y0141093D03*
X0106000Y0141093D03*
X0096000Y0141093D03*
X0086000Y0141093D03*
X0076000Y0141093D03*
X0066000Y0141093D03*
X0056000Y0141093D03*
X0046000Y0141093D03*
X0036000Y0141093D03*
X0026000Y0141093D03*
X0016000Y0141093D03*
X0016000Y0131093D03*
X0026000Y0131093D03*
X0036000Y0131093D03*
X0046000Y0131093D03*
X0056000Y0131093D03*
X0066000Y0131093D03*
X0076000Y0131093D03*
X0086000Y0131093D03*
X0096000Y0131093D03*
X0106000Y0131093D03*
X0116000Y0131093D03*
X0126000Y0131093D03*
X0136000Y0131093D03*
X0146000Y0131093D03*
X0156000Y0131093D03*
X0166000Y0131093D03*
X0176000Y0131093D03*
X0186000Y0131093D03*
X0196000Y0131093D03*
X0206000Y0131093D03*
X0206000Y0121093D03*
X0196000Y0121093D03*
X0186000Y0121093D03*
X0176000Y0121093D03*
X0166000Y0121093D03*
X0156000Y0121093D03*
X0146000Y0121093D03*
X0136000Y0121093D03*
X0126000Y0121093D03*
X0116000Y0121093D03*
X0106000Y0121093D03*
X0096000Y0121093D03*
X0086000Y0121093D03*
X0076000Y0121093D03*
X0066000Y0121093D03*
X0056000Y0121093D03*
X0046000Y0121093D03*
X0036000Y0121093D03*
X0026000Y0121093D03*
X0016000Y0121093D03*
X0016000Y0111093D03*
X0026000Y0111093D03*
X0036000Y0111093D03*
X0046000Y0111093D03*
X0056000Y0111093D03*
X0066000Y0111093D03*
X0076000Y0111093D03*
X0086000Y0111093D03*
X0096000Y0111093D03*
X0106000Y0111093D03*
X0116000Y0111093D03*
X0126000Y0111093D03*
X0136000Y0111093D03*
X0146000Y0111093D03*
X0156000Y0111093D03*
X0166000Y0111093D03*
X0176000Y0111093D03*
X0186000Y0111093D03*
X0196000Y0111093D03*
X0206000Y0111093D03*
X0206000Y0101093D03*
X0196000Y0101093D03*
X0186000Y0101093D03*
X0176000Y0101093D03*
X0166000Y0101093D03*
X0156000Y0101093D03*
X0146000Y0101093D03*
X0136000Y0101093D03*
X0126000Y0101093D03*
X0116000Y0101093D03*
X0106000Y0101093D03*
X0096000Y0101093D03*
X0086000Y0101093D03*
X0076000Y0101093D03*
X0066000Y0101093D03*
X0056000Y0101093D03*
X0046000Y0101093D03*
X0036000Y0101093D03*
X0026000Y0101093D03*
X0016000Y0101093D03*
X0016000Y0091093D03*
X0026000Y0091093D03*
X0036000Y0091093D03*
X0046000Y0091093D03*
X0056000Y0091093D03*
X0066000Y0091093D03*
X0076000Y0091093D03*
X0086000Y0091093D03*
X0096000Y0091093D03*
X0106000Y0091093D03*
X0116000Y0091093D03*
X0126000Y0091093D03*
X0136000Y0091093D03*
X0146000Y0091093D03*
X0156000Y0091093D03*
X0166000Y0091093D03*
X0176000Y0091093D03*
X0186000Y0091093D03*
X0196000Y0091093D03*
X0206000Y0091093D03*
X0206000Y0081093D03*
X0196000Y0081093D03*
X0186000Y0081093D03*
X0176000Y0081093D03*
X0166000Y0081093D03*
X0156000Y0081093D03*
X0146000Y0081093D03*
X0136000Y0081093D03*
X0126000Y0081093D03*
X0116000Y0081093D03*
X0106000Y0081093D03*
X0096000Y0081093D03*
X0086000Y0081093D03*
X0076000Y0081093D03*
X0066000Y0081093D03*
X0056000Y0081093D03*
X0046000Y0081093D03*
X0036000Y0081093D03*
X0026000Y0081093D03*
X0016000Y0081093D03*
X0016000Y0071093D03*
X0026000Y0071093D03*
X0036000Y0071093D03*
X0046000Y0071093D03*
X0056000Y0071093D03*
X0066000Y0071093D03*
X0076000Y0071093D03*
X0086000Y0071093D03*
X0096000Y0071093D03*
X0106000Y0071093D03*
X0116000Y0071093D03*
X0126000Y0071093D03*
X0136000Y0071093D03*
X0146000Y0071093D03*
X0156000Y0071093D03*
X0166000Y0071093D03*
X0176000Y0071093D03*
X0186000Y0071093D03*
X0196000Y0071093D03*
X0206000Y0071093D03*
X0206000Y0061093D03*
X0196000Y0061093D03*
X0186000Y0061093D03*
X0176000Y0061093D03*
X0166000Y0061093D03*
X0156000Y0061093D03*
X0146000Y0061093D03*
X0136000Y0061093D03*
X0126000Y0061093D03*
X0116000Y0061093D03*
X0106000Y0061093D03*
X0096000Y0061093D03*
X0086000Y0061093D03*
X0076000Y0061093D03*
X0066000Y0061093D03*
X0056000Y0061093D03*
X0046000Y0061093D03*
X0036000Y0061093D03*
X0026000Y0061093D03*
X0016000Y0061093D03*
X0016000Y0051093D03*
X0026000Y0051093D03*
X0036000Y0051093D03*
X0046000Y0051093D03*
X0056000Y0051093D03*
X0066000Y0051093D03*
X0076000Y0051093D03*
X0086000Y0051093D03*
X0096000Y0051093D03*
X0106000Y0051093D03*
X0116000Y0051093D03*
X0126000Y0051093D03*
X0136000Y0051093D03*
X0146000Y0051093D03*
X0156000Y0051093D03*
X0166000Y0051093D03*
X0176000Y0051093D03*
X0186000Y0051093D03*
X0196000Y0051093D03*
X0206000Y0051093D03*
D24*
X0256000Y0056093D02*
X0272400Y0072493D01*
X0272400Y0081672D01*
X0272400Y0081673D01*
X0272400Y0134693D01*
X0261000Y0146093D01*
X0246000Y0161093D01*
X0246000Y0186749D01*
X0235257Y0197493D01*
X0111000Y0197493D01*
X0102900Y0205593D01*
X0102900Y0214449D01*
X0100557Y0216793D01*
X0097243Y0216793D01*
X0093243Y0212793D01*
X0088900Y0212793D01*
X0098900Y0212793D02*
X0098900Y0203193D01*
X0106000Y0196093D01*
X0231000Y0196093D01*
X0236000Y0191093D01*
X0236000Y0161093D01*
X0261000Y0136093D01*
X0271000Y0126093D01*
X0271000Y0081093D01*
X0256000Y0066093D01*
X0258900Y0212793D02*
X0264900Y0218793D01*
X0270557Y0218793D01*
X0276000Y0224236D01*
X0276000Y0251093D01*
X0261000Y0251093D01*
X0252400Y0261672D02*
X0247280Y0266793D01*
X0231000Y0266793D01*
X0231000Y0296093D01*
X0241000Y0296093D02*
X0241000Y0271093D01*
X0242781Y0265393D02*
X0226700Y0265393D01*
X0220300Y0271793D01*
X0182280Y0271793D01*
X0181580Y0272493D01*
X0181000Y0272493D01*
X0181000Y0296093D01*
X0186700Y0290393D01*
X0191000Y0296093D02*
X0191000Y0276093D01*
X0192781Y0270393D02*
X0181700Y0270393D01*
X0181000Y0271093D01*
X0144919Y0271093D01*
X0141700Y0274311D01*
X0141700Y0290393D01*
X0136000Y0296093D01*
X0146000Y0296093D02*
X0146000Y0276093D01*
X0146000Y0266093D02*
X0146000Y0249833D01*
X0128900Y0263193D02*
X0126000Y0266093D01*
X0116000Y0266093D01*
X0110300Y0271793D01*
X0104219Y0271793D01*
X0101700Y0274311D01*
X0101700Y0280393D01*
X0086000Y0296093D01*
X0096000Y0296093D02*
X0106000Y0286093D01*
X0106000Y0276093D01*
X0106000Y0266093D02*
X0106000Y0249833D01*
X0101000Y0256093D02*
X0084740Y0272352D01*
X0084740Y0276093D01*
X0077260Y0276093D02*
X0063500Y0276093D01*
X0056000Y0271093D02*
X0056000Y0266093D01*
X0036000Y0246093D01*
X0031000Y0246093D01*
X0016000Y0261093D01*
X0036000Y0236093D02*
X0036000Y0191093D01*
X0023000Y0178092D01*
X0023000Y0176093D01*
X0078900Y0222793D02*
X0078900Y0233193D01*
X0076000Y0236093D01*
X0036000Y0236093D01*
X0088900Y0222793D02*
X0096000Y0229893D01*
X0128900Y0222793D02*
X0128900Y0263193D01*
X0191000Y0266093D02*
X0191000Y0249833D01*
X0195300Y0266793D02*
X0215819Y0246274D01*
X0245819Y0246274D01*
X0248900Y0243193D01*
X0248900Y0228449D01*
X0252900Y0224449D01*
X0252900Y0221136D01*
X0248900Y0217136D01*
X0248900Y0212793D01*
X0258900Y0222793D02*
X0251000Y0230693D01*
X0251000Y0261093D01*
X0247081Y0261093D01*
X0242781Y0265393D01*
X0241000Y0261093D02*
X0241000Y0249833D01*
X0252400Y0239293D02*
X0252400Y0261672D01*
X0252400Y0239293D02*
X0268900Y0222793D01*
X0296000Y0247352D02*
X0306000Y0247352D01*
X0306000Y0247352D01*
X0316000Y0247352D01*
X0326000Y0247352D01*
X0337260Y0236093D01*
X0341000Y0236093D01*
X0326000Y0254833D02*
X0326000Y0271093D01*
X0316000Y0271093D02*
X0316000Y0271092D01*
X0316000Y0254833D01*
X0316000Y0247352D02*
X0316000Y0247352D01*
X0306000Y0254833D02*
X0306000Y0271093D01*
X0296000Y0271093D02*
X0296000Y0254833D01*
X0195300Y0266793D02*
X0195300Y0267874D01*
X0192781Y0270393D01*
D25*
X0191000Y0242352D02*
X0241000Y0242352D01*
X0244800Y0238552D01*
X0244800Y0236093D01*
X0141000Y0236093D01*
X0140370Y0236722D01*
X0146000Y0242352D01*
X0191000Y0242352D01*
X0158900Y0212793D02*
X0152200Y0206093D01*
X0106000Y0206093D01*
X0104400Y0207693D01*
X0104400Y0215071D01*
X0101178Y0218293D01*
X0088602Y0218293D01*
X0083095Y0212785D01*
X0078953Y0212785D01*
X0083109Y0212785D01*
X0101302Y0194593D01*
X0226000Y0194593D01*
X0226000Y0161093D01*
X0261000Y0126093D01*
X0261000Y0116093D02*
X0248900Y0103992D01*
X0248900Y0054394D01*
X0256000Y0047294D01*
X0256000Y0046093D01*
X0276000Y0066093D01*
X0276000Y0106093D01*
X0286000Y0116093D01*
X0301000Y0116093D01*
X0321000Y0116093D01*
X0321000Y0196093D01*
X0311000Y0206093D01*
X0341000Y0236093D01*
X0376000Y0271093D01*
X0376000Y0281093D01*
X0346000Y0281093D01*
X0346000Y0271093D01*
X0326000Y0271093D02*
X0326000Y0296093D01*
X0316000Y0296093D02*
X0316000Y0271093D01*
X0306000Y0271093D02*
X0306000Y0296093D01*
X0296000Y0296093D02*
X0296000Y0271093D01*
X0244800Y0236093D02*
X0244800Y0211094D01*
X0259802Y0196093D01*
X0276000Y0196093D01*
X0305800Y0166293D01*
X0305800Y0134104D01*
X0301000Y0129304D01*
X0301000Y0126093D01*
X0305800Y0166293D02*
X0305800Y0170094D01*
X0386000Y0271093D02*
X0386000Y0296093D01*
X0376000Y0296093D01*
X0140370Y0236722D02*
X0133000Y0229352D01*
X0133000Y0221094D01*
X0130598Y0218693D01*
X0127202Y0218693D01*
X0124800Y0221094D01*
X0124800Y0223552D01*
X0106000Y0242352D01*
X0106000Y0239893D01*
X0088900Y0222793D01*
X0078900Y0222793D01*
X0021000Y0271093D02*
X0016000Y0271093D01*
X0021000Y0271093D02*
X0036000Y0286093D01*
D26*
X0096000Y0296093D02*
X0111000Y0311093D01*
X0361000Y0311093D01*
X0366000Y0306093D01*
X0366000Y0296093D01*
X0356000Y0296093D02*
X0356000Y0306093D01*
X0352800Y0309293D01*
X0156000Y0309293D01*
X0146000Y0299293D01*
X0146000Y0296093D01*
X0191000Y0296093D02*
X0202400Y0307493D01*
X0344600Y0307493D01*
X0346000Y0306093D01*
X0346000Y0296093D01*
X0336000Y0296093D02*
X0336000Y0300693D01*
X0331000Y0305693D01*
X0245600Y0305693D01*
X0241000Y0301093D01*
D27*
X0261000Y0251093D03*
X0101000Y0256093D03*
M02*
