%
M48
M72
T01C0.01378
T02C0.03150
T03C0.03200
T04C0.04000
T05C0.04400
T06C0.10827
%
T01
X261000Y251093
X101000Y256093
T02
X311000Y206093
X311000Y196093
X311000Y186093
X311000Y176093
T03
X241000Y261093
X241000Y271093
X191000Y276093
X191000Y266093
X146000Y266093
X146000Y276093
X106000Y276093
X106000Y266093
X63500Y276093
X56000Y281093
X56000Y271093
T04
X86000Y296093
X96000Y296093
X106000Y296093
X136000Y296093
X146000Y296093
X156000Y296093
X181000Y296093
X191000Y296093
X201000Y296093
X231000Y296093
X241000Y296093
X251000Y296093
X296000Y296093
X306000Y296093
X316000Y296093
X326000Y296093
X336000Y296093
X346000Y296093
X356000Y296093
X366000Y296093
X376000Y296093
X386000Y296093
X386000Y271093
X376000Y271093
X366000Y271093
X356000Y271093
X346000Y271093
X336000Y271093
X326000Y271093
X316000Y271093
X306000Y271093
X296000Y271093
X268900Y222793
X258900Y222793
X248900Y222793
X238900Y222793
X228900Y222793
X218900Y222793
X208900Y222793
X198900Y222793
X188900Y222793
X178900Y222793
X168900Y222793
X158900Y222793
X148900Y222793
X138900Y222793
X128900Y222793
X118900Y222793
X108900Y222793
X98900Y222793
X88900Y222793
X78900Y222793
X78953Y212785
X88900Y212793
X98900Y212793
X108900Y212793
X118900Y212793
X128900Y212793
X138900Y212793
X148900Y212793
X158900Y212793
X168900Y212793
X178900Y212793
X188900Y212793
X198900Y212793
X208900Y212793
X218900Y212793
X228900Y212793
X238900Y212793
X248900Y212793
X258900Y212793
X268900Y212793
X271000Y186093
X261000Y186093
X251000Y186093
X241000Y186093
X231000Y186093
X221000Y186093
X211000Y186093
X201000Y186093
X191000Y186093
X181000Y186093
X171000Y186093
X161000Y186093
X151000Y186093
X141000Y186093
X131000Y186093
X121000Y186093
X111000Y186093
X101000Y186093
X91000Y186093
X81000Y186093
X81000Y176093
X91000Y176093
X101000Y176093
X111000Y176093
X121000Y176093
X131000Y176093
X141000Y176093
X151000Y176093
X161000Y176093
X171000Y176093
X181000Y176093
X191000Y176093
X201000Y176093
X211000Y176093
X221000Y176093
X231000Y176093
X241000Y176093
X251000Y176093
X261000Y176093
X271000Y176093
X261000Y146093
X261000Y136093
X261000Y126093
X261000Y116093
X261000Y106093
X261000Y96093
X256000Y76093
X256000Y66093
X256000Y56093
X256000Y46093
X256000Y36093
X256000Y26093
X206000Y111093
X206000Y121093
X206000Y131093
X206000Y141093
X196000Y141093
X186000Y141093
X176000Y141093
X166000Y141093
X156000Y141093
X146000Y141093
X136000Y141093
X126000Y141093
X116000Y141093
X106000Y141093
X96000Y141093
X86000Y141093
X76000Y141093
X66000Y141093
X56000Y141093
X46000Y141093
X36000Y141093
X26000Y141093
X16000Y141093
X16000Y131093
X26000Y131093
X36000Y131093
X46000Y131093
X56000Y131093
X66000Y131093
X76000Y131093
X86000Y131093
X96000Y131093
X106000Y131093
X116000Y131093
X126000Y131093
X136000Y131093
X146000Y131093
X156000Y131093
X166000Y131093
X176000Y131093
X186000Y131093
X196000Y131093
X196000Y121093
X186000Y121093
X176000Y121093
X166000Y121093
X156000Y121093
X146000Y121093
X136000Y121093
X126000Y121093
X116000Y121093
X106000Y121093
X96000Y121093
X86000Y121093
X76000Y121093
X66000Y121093
X56000Y121093
X46000Y121093
X36000Y121093
X26000Y121093
X16000Y121093
X16000Y111093
X26000Y111093
X36000Y111093
X46000Y111093
X56000Y111093
X66000Y111093
X76000Y111093
X86000Y111093
X96000Y111093
X106000Y111093
X116000Y111093
X126000Y111093
X136000Y111093
X146000Y111093
X156000Y111093
X166000Y111093
X176000Y111093
X186000Y111093
X196000Y111093
X196000Y101093
X186000Y101093
X176000Y101093
X166000Y101093
X156000Y101093
X146000Y101093
X136000Y101093
X126000Y101093
X116000Y101093
X106000Y101093
X96000Y101093
X86000Y101093
X76000Y101093
X66000Y101093
X56000Y101093
X46000Y101093
X36000Y101093
X26000Y101093
X16000Y101093
X16000Y91093
X26000Y91093
X36000Y91093
X46000Y91093
X56000Y91093
X66000Y91093
X76000Y91093
X86000Y91093
X96000Y91093
X106000Y91093
X116000Y91093
X126000Y91093
X136000Y91093
X146000Y91093
X156000Y91093
X166000Y91093
X176000Y91093
X186000Y91093
X196000Y91093
X206000Y91093
X206000Y101093
X206000Y81093
X196000Y81093
X186000Y81093
X176000Y81093
X166000Y81093
X156000Y81093
X146000Y81093
X136000Y81093
X126000Y81093
X116000Y81093
X106000Y81093
X96000Y81093
X86000Y81093
X76000Y81093
X66000Y81093
X56000Y81093
X46000Y81093
X36000Y81093
X26000Y81093
X16000Y81093
X16000Y71093
X26000Y71093
X36000Y71093
X46000Y71093
X56000Y71093
X66000Y71093
X76000Y71093
X86000Y71093
X96000Y71093
X106000Y71093
X116000Y71093
X126000Y71093
X136000Y71093
X146000Y71093
X156000Y71093
X166000Y71093
X176000Y71093
X186000Y71093
X196000Y71093
X206000Y71093
X206000Y61093
X196000Y61093
X186000Y61093
X176000Y61093
X166000Y61093
X156000Y61093
X146000Y61093
X136000Y61093
X126000Y61093
X116000Y61093
X106000Y61093
X96000Y61093
X86000Y61093
X76000Y61093
X66000Y61093
X56000Y61093
X46000Y61093
X36000Y61093
X26000Y61093
X16000Y61093
X16000Y51093
X26000Y51093
X36000Y51093
X46000Y51093
X56000Y51093
X66000Y51093
X76000Y51093
X86000Y51093
X96000Y51093
X106000Y51093
X116000Y51093
X126000Y51093
X136000Y51093
X146000Y51093
X156000Y51093
X166000Y51093
X176000Y51093
X186000Y51093
X196000Y51093
X206000Y51093
X301000Y96093
X301000Y106093
X301000Y116093
X301000Y126093
X301000Y136093
X301000Y146093
X16000Y176093
X16000Y186093
X16000Y196093
X16000Y206093
X16000Y216093
X16000Y226093
X16000Y261093
X16000Y271093
T05
X36000Y286093
X36000Y246093
T06
X59780Y24872
X288126Y24872
X288126Y217785
X59780Y217785
M30
