G75*
%MOIN*%
%OFA0B0*%
%FSLAX25Y25*%
%IPPOS*%
%LPD*%
%AMOC8*
5,1,8,0,0,1.08239X$1,22.5*
%
%ADD10OC8,0.07000*%
%ADD11C,0.07400*%
%ADD12C,0.06000*%
%ADD13C,0.07600*%
%ADD14OC8,0.06600*%
%ADD15R,0.06000X0.06000*%
%ADD16C,0.06000*%
%ADD17OC8,0.05200*%
%ADD18OC8,0.05150*%
%ADD19C,0.05150*%
%ADD20OC8,0.06000*%
%ADD21C,0.01000*%
%ADD22C,0.00800*%
%ADD23C,0.02978*%
D10*
X0296000Y0271093D03*
X0306000Y0271093D03*
X0316000Y0271093D03*
X0326000Y0271093D03*
X0336000Y0271093D03*
X0346000Y0271093D03*
X0356000Y0271093D03*
X0366000Y0271093D03*
X0376000Y0271093D03*
X0386000Y0271093D03*
D11*
X0301000Y0146093D03*
X0301000Y0136093D03*
X0301000Y0126093D03*
X0301000Y0116093D03*
X0301000Y0106093D03*
X0301000Y0096093D03*
X0261000Y0096093D03*
X0261000Y0106093D03*
X0261000Y0116093D03*
X0261000Y0126093D03*
X0261000Y0136093D03*
X0261000Y0146093D03*
D12*
X0259000Y0076093D02*
X0253000Y0076093D01*
X0253000Y0066093D02*
X0259000Y0066093D01*
X0259000Y0056093D02*
X0253000Y0056093D01*
X0253000Y0046093D02*
X0259000Y0046093D01*
X0259000Y0036093D02*
X0253000Y0036093D01*
X0253000Y0026093D02*
X0259000Y0026093D01*
X0019000Y0176093D02*
X0013000Y0176093D01*
X0013000Y0186093D02*
X0019000Y0186093D01*
X0019000Y0196093D02*
X0013000Y0196093D01*
X0013000Y0206093D02*
X0019000Y0206093D01*
X0019000Y0216093D02*
X0013000Y0216093D01*
X0013000Y0226093D02*
X0019000Y0226093D01*
X0019000Y0261093D02*
X0013000Y0261093D01*
X0013000Y0271093D02*
X0019000Y0271093D01*
X0086000Y0293093D02*
X0086000Y0299093D01*
X0096000Y0299093D02*
X0096000Y0293093D01*
X0106000Y0293093D02*
X0106000Y0299093D01*
X0136000Y0299093D02*
X0136000Y0293093D01*
X0146000Y0293093D02*
X0146000Y0299093D01*
X0156000Y0299093D02*
X0156000Y0293093D01*
X0181000Y0293093D02*
X0181000Y0299093D01*
X0191000Y0299093D02*
X0191000Y0293093D01*
X0201000Y0293093D02*
X0201000Y0299093D01*
X0231000Y0299093D02*
X0231000Y0293093D01*
X0241000Y0293093D02*
X0241000Y0299093D01*
X0251000Y0299093D02*
X0251000Y0293093D01*
X0296000Y0293093D02*
X0296000Y0299093D01*
X0306000Y0299093D02*
X0306000Y0293093D01*
X0316000Y0293093D02*
X0316000Y0299093D01*
X0326000Y0299093D02*
X0326000Y0293093D01*
X0336000Y0293093D02*
X0336000Y0299093D01*
X0346000Y0299093D02*
X0346000Y0293093D01*
X0356000Y0293093D02*
X0356000Y0299093D01*
X0366000Y0299093D02*
X0366000Y0293093D01*
X0376000Y0293093D02*
X0376000Y0299093D01*
X0386000Y0299093D02*
X0386000Y0293093D01*
D13*
X0036000Y0286093D03*
X0036000Y0246093D03*
D14*
X0106000Y0266093D03*
X0106000Y0276093D03*
X0146000Y0276093D03*
X0146000Y0266093D03*
X0191000Y0266093D03*
X0191000Y0276093D03*
X0241000Y0271093D03*
X0241000Y0261093D03*
D15*
X0078953Y0212785D03*
D16*
X0088900Y0212793D03*
X0098900Y0212793D03*
X0098900Y0222793D03*
X0088900Y0222793D03*
X0078900Y0222793D03*
X0108900Y0222793D03*
X0118900Y0222793D03*
X0128900Y0222793D03*
X0138900Y0222793D03*
X0148900Y0222793D03*
X0158900Y0222793D03*
X0168900Y0222793D03*
X0178900Y0222793D03*
X0188900Y0222793D03*
X0198900Y0222793D03*
X0208900Y0222793D03*
X0218900Y0222793D03*
X0228900Y0222793D03*
X0238900Y0222793D03*
X0248900Y0222793D03*
X0258900Y0222793D03*
X0268900Y0222793D03*
X0268900Y0212793D03*
X0258900Y0212793D03*
X0248900Y0212793D03*
X0238900Y0212793D03*
X0228900Y0212793D03*
X0218900Y0212793D03*
X0208900Y0212793D03*
X0198900Y0212793D03*
X0188900Y0212793D03*
X0178900Y0212793D03*
X0168900Y0212793D03*
X0158900Y0212793D03*
X0148900Y0212793D03*
X0138900Y0212793D03*
X0128900Y0212793D03*
X0118900Y0212793D03*
X0108900Y0212793D03*
D17*
X0056000Y0271093D03*
X0063500Y0276093D03*
X0056000Y0281093D03*
D18*
X0311000Y0176093D03*
D19*
X0311000Y0186093D03*
X0311000Y0196093D03*
X0311000Y0206093D03*
D20*
X0016000Y0051093D03*
X0026000Y0051093D03*
X0026000Y0061093D03*
X0016000Y0061093D03*
X0016000Y0071093D03*
X0026000Y0071093D03*
X0026000Y0081093D03*
X0016000Y0081093D03*
X0016000Y0091093D03*
X0026000Y0091093D03*
X0026000Y0101093D03*
X0016000Y0101093D03*
X0016000Y0111093D03*
X0026000Y0111093D03*
X0026000Y0121093D03*
X0016000Y0121093D03*
X0016000Y0131093D03*
X0026000Y0131093D03*
X0026000Y0141093D03*
X0016000Y0141093D03*
X0036000Y0141093D03*
X0046000Y0141093D03*
X0056000Y0141093D03*
X0066000Y0141093D03*
X0076000Y0141093D03*
X0086000Y0141093D03*
X0096000Y0141093D03*
X0106000Y0141093D03*
X0116000Y0141093D03*
X0126000Y0141093D03*
X0136000Y0141093D03*
X0146000Y0141093D03*
X0156000Y0141093D03*
X0166000Y0141093D03*
X0176000Y0141093D03*
X0186000Y0141093D03*
X0196000Y0141093D03*
X0206000Y0141093D03*
X0206000Y0131093D03*
X0196000Y0131093D03*
X0186000Y0131093D03*
X0176000Y0131093D03*
X0166000Y0131093D03*
X0156000Y0131093D03*
X0146000Y0131093D03*
X0136000Y0131093D03*
X0126000Y0131093D03*
X0116000Y0131093D03*
X0106000Y0131093D03*
X0096000Y0131093D03*
X0086000Y0131093D03*
X0076000Y0131093D03*
X0066000Y0131093D03*
X0056000Y0131093D03*
X0046000Y0131093D03*
X0036000Y0131093D03*
X0036000Y0121093D03*
X0046000Y0121093D03*
X0056000Y0121093D03*
X0066000Y0121093D03*
X0076000Y0121093D03*
X0086000Y0121093D03*
X0096000Y0121093D03*
X0106000Y0121093D03*
X0116000Y0121093D03*
X0126000Y0121093D03*
X0136000Y0121093D03*
X0146000Y0121093D03*
X0156000Y0121093D03*
X0166000Y0121093D03*
X0176000Y0121093D03*
X0186000Y0121093D03*
X0196000Y0121093D03*
X0206000Y0121093D03*
X0206000Y0111093D03*
X0196000Y0111093D03*
X0186000Y0111093D03*
X0176000Y0111093D03*
X0166000Y0111093D03*
X0156000Y0111093D03*
X0146000Y0111093D03*
X0136000Y0111093D03*
X0126000Y0111093D03*
X0116000Y0111093D03*
X0106000Y0111093D03*
X0096000Y0111093D03*
X0086000Y0111093D03*
X0076000Y0111093D03*
X0066000Y0111093D03*
X0056000Y0111093D03*
X0046000Y0111093D03*
X0036000Y0111093D03*
X0036000Y0101093D03*
X0046000Y0101093D03*
X0056000Y0101093D03*
X0066000Y0101093D03*
X0076000Y0101093D03*
X0086000Y0101093D03*
X0096000Y0101093D03*
X0106000Y0101093D03*
X0116000Y0101093D03*
X0126000Y0101093D03*
X0136000Y0101093D03*
X0146000Y0101093D03*
X0156000Y0101093D03*
X0166000Y0101093D03*
X0176000Y0101093D03*
X0186000Y0101093D03*
X0196000Y0101093D03*
X0206000Y0101093D03*
X0206000Y0091093D03*
X0196000Y0091093D03*
X0186000Y0091093D03*
X0176000Y0091093D03*
X0166000Y0091093D03*
X0156000Y0091093D03*
X0146000Y0091093D03*
X0136000Y0091093D03*
X0126000Y0091093D03*
X0116000Y0091093D03*
X0106000Y0091093D03*
X0096000Y0091093D03*
X0086000Y0091093D03*
X0076000Y0091093D03*
X0066000Y0091093D03*
X0056000Y0091093D03*
X0046000Y0091093D03*
X0036000Y0091093D03*
X0036000Y0081093D03*
X0046000Y0081093D03*
X0056000Y0081093D03*
X0066000Y0081093D03*
X0076000Y0081093D03*
X0086000Y0081093D03*
X0096000Y0081093D03*
X0106000Y0081093D03*
X0116000Y0081093D03*
X0126000Y0081093D03*
X0136000Y0081093D03*
X0146000Y0081093D03*
X0156000Y0081093D03*
X0166000Y0081093D03*
X0176000Y0081093D03*
X0186000Y0081093D03*
X0196000Y0081093D03*
X0206000Y0081093D03*
X0206000Y0071093D03*
X0196000Y0071093D03*
X0186000Y0071093D03*
X0176000Y0071093D03*
X0166000Y0071093D03*
X0156000Y0071093D03*
X0146000Y0071093D03*
X0136000Y0071093D03*
X0126000Y0071093D03*
X0116000Y0071093D03*
X0106000Y0071093D03*
X0096000Y0071093D03*
X0086000Y0071093D03*
X0076000Y0071093D03*
X0066000Y0071093D03*
X0056000Y0071093D03*
X0046000Y0071093D03*
X0036000Y0071093D03*
X0036000Y0061093D03*
X0046000Y0061093D03*
X0056000Y0061093D03*
X0066000Y0061093D03*
X0076000Y0061093D03*
X0086000Y0061093D03*
X0096000Y0061093D03*
X0106000Y0061093D03*
X0116000Y0061093D03*
X0126000Y0061093D03*
X0136000Y0061093D03*
X0146000Y0061093D03*
X0156000Y0061093D03*
X0166000Y0061093D03*
X0176000Y0061093D03*
X0186000Y0061093D03*
X0196000Y0061093D03*
X0206000Y0061093D03*
X0206000Y0051093D03*
X0196000Y0051093D03*
X0186000Y0051093D03*
X0176000Y0051093D03*
X0166000Y0051093D03*
X0156000Y0051093D03*
X0146000Y0051093D03*
X0136000Y0051093D03*
X0126000Y0051093D03*
X0116000Y0051093D03*
X0106000Y0051093D03*
X0096000Y0051093D03*
X0086000Y0051093D03*
X0076000Y0051093D03*
X0066000Y0051093D03*
X0056000Y0051093D03*
X0046000Y0051093D03*
X0036000Y0051093D03*
X0081000Y0176093D03*
X0091000Y0176093D03*
X0091000Y0186093D03*
X0081000Y0186093D03*
X0101000Y0186093D03*
X0111000Y0186093D03*
X0121000Y0186093D03*
X0131000Y0186093D03*
X0141000Y0186093D03*
X0151000Y0186093D03*
X0161000Y0186093D03*
X0171000Y0186093D03*
X0181000Y0186093D03*
X0191000Y0186093D03*
X0201000Y0186093D03*
X0211000Y0186093D03*
X0221000Y0186093D03*
X0231000Y0186093D03*
X0241000Y0186093D03*
X0251000Y0186093D03*
X0261000Y0186093D03*
X0271000Y0186093D03*
X0271000Y0176093D03*
X0261000Y0176093D03*
X0251000Y0176093D03*
X0241000Y0176093D03*
X0231000Y0176093D03*
X0221000Y0176093D03*
X0211000Y0176093D03*
X0201000Y0176093D03*
X0191000Y0176093D03*
X0181000Y0176093D03*
X0171000Y0176093D03*
X0161000Y0176093D03*
X0151000Y0176093D03*
X0141000Y0176093D03*
X0131000Y0176093D03*
X0121000Y0176093D03*
X0111000Y0176093D03*
X0101000Y0176093D03*
D21*
X0068886Y0202872D02*
X0073799Y0212785D01*
X0078953Y0212785D01*
X0068886Y0202872D02*
X0050673Y0202872D01*
X0042453Y0216093D01*
X0024798Y0216093D01*
X0020698Y0220193D01*
X0011900Y0220193D01*
X0008900Y0223193D01*
X0008900Y0227791D01*
X0008900Y0262791D01*
X0016000Y0269891D01*
X0016000Y0271093D01*
X0056000Y0281093D02*
X0091000Y0281093D01*
X0093900Y0273193D01*
X0098900Y0222793D01*
X0093994Y0232699D01*
X0055673Y0232699D01*
X0054067Y0231093D01*
X0016000Y0231093D01*
X0008900Y0227791D02*
X0008900Y0227791D01*
X0091000Y0281093D02*
X0106000Y0296093D01*
X0116000Y0286093D01*
X0156000Y0286093D01*
X0201000Y0286093D01*
X0251000Y0286093D01*
X0251000Y0291093D01*
X0201000Y0291093D02*
X0201000Y0286093D01*
X0156000Y0286093D02*
X0156000Y0291093D01*
X0160598Y0226893D02*
X0147202Y0226893D01*
X0143102Y0222793D01*
X0138900Y0222793D01*
X0160598Y0226893D02*
X0164698Y0222793D01*
X0168900Y0222793D01*
X0173102Y0222793D01*
X0177202Y0226893D01*
X0214800Y0226893D01*
X0218900Y0222793D01*
X0221199Y0220493D01*
X0221199Y0216292D01*
X0223600Y0218693D01*
X0230598Y0218693D01*
X0234698Y0222793D01*
X0238900Y0222793D01*
X0243102Y0222793D01*
X0247202Y0218693D01*
X0263000Y0218693D01*
X0268900Y0212793D01*
X0280600Y0201093D01*
X0306000Y0201093D01*
X0311000Y0206093D01*
X0311000Y0176093D02*
X0261000Y0126093D01*
X0271000Y0126093D01*
X0281000Y0116093D01*
X0281000Y0061093D01*
X0256000Y0036093D01*
X0256000Y0036093D01*
X0301000Y0126093D02*
X0386000Y0211093D01*
X0386000Y0271093D01*
X0221199Y0216292D02*
X0220598Y0216893D01*
X0203000Y0216893D01*
X0198900Y0212793D01*
D22*
X0182900Y0211136D02*
X0182900Y0219193D01*
X0179300Y0222793D01*
X0178900Y0222793D01*
X0182900Y0211136D02*
X0181400Y0209636D01*
X0181400Y0191493D01*
X0078763Y0191493D01*
X0074763Y0187493D01*
X0029600Y0187493D01*
X0021000Y0196093D01*
X0016000Y0196093D01*
X0016000Y0206093D02*
X0031000Y0191093D01*
X0076383Y0191093D01*
X0078183Y0192893D01*
X0161000Y0192893D01*
X0161000Y0194113D01*
X0164300Y0197413D01*
X0164300Y0217393D01*
X0158900Y0222793D01*
X0160557Y0216793D02*
X0154900Y0216793D01*
X0148900Y0222793D01*
X0138900Y0222793D02*
X0134557Y0222793D01*
X0130557Y0218793D01*
X0124900Y0218793D01*
X0118900Y0212793D01*
X0112900Y0218793D01*
X0107243Y0218793D01*
X0103243Y0222793D01*
X0098900Y0222793D01*
X0077603Y0194293D02*
X0159200Y0194293D01*
X0162900Y0197993D01*
X0162900Y0214449D01*
X0160557Y0216793D01*
X0196200Y0190093D02*
X0079343Y0190093D01*
X0075343Y0186093D01*
X0016000Y0186093D01*
X0039600Y0192493D02*
X0075803Y0192493D01*
X0077603Y0194293D01*
X0039600Y0192493D02*
X0016000Y0216093D01*
X0101000Y0256093D02*
X0256000Y0256093D01*
X0261000Y0251093D01*
X0268900Y0212793D02*
X0270800Y0210893D01*
X0246000Y0196093D02*
X0229300Y0212793D01*
X0228900Y0212793D01*
X0218900Y0212793D02*
X0196200Y0190093D01*
X0246000Y0196093D02*
X0301000Y0196093D01*
X0311000Y0186093D01*
X0301000Y0146093D02*
X0356000Y0201093D01*
X0356000Y0271093D01*
X0366000Y0271093D02*
X0366000Y0201093D01*
X0301000Y0136093D01*
D23*
X0261000Y0251093D03*
X0101000Y0256093D03*
M02*
